<?xml version="1.0" encoding="UTF-8"?>
<svg width="232px" height="232px" viewBox="0 0 232 232" version="1.1" xmlns="http://www.w3.org/2000/svg" xmlns:xlink="http://www.w3.org/1999/xlink">
    <!-- Generator: Sketch 52.5 (67469) - http://www.bohemiancoding.com/sketch -->
    <title>mastodon</title>
    <desc>Created with Sketch.</desc>
    <g id="mastodon" stroke="none" stroke-width="1" fill="none" fill-rule="evenodd">
        <path d="M219.80734,139.0875 C216.62609,155.45375 191.31484,173.365 162.24484,176.83625 C147.08609,178.645 132.16109,180.3075 116.24609,179.5775 C90.21859,178.385 69.68109,173.365 69.68109,173.365 C69.68109,175.89875 69.83734,178.31125 70.14984,180.5675 C73.53359,206.25375 95.61984,207.7925 116.54109,208.51 C137.65734,209.2325 156.45984,203.30375 156.45984,203.30375 L157.32734,222.39375 C157.32734,222.39375 142.55734,230.325 116.24609,231.78375 C101.73734,232.58125 83.72234,231.41875 62.73984,225.865 C17.23234,213.82 9.40609,165.31125 8.20859,116.09125 C7.84359,101.4775 8.06859,87.6975 8.06859,76.1725 C8.06859,25.8425 41.04484,11.09 41.04484,11.09 C57.67234,3.45375 86.20359,0.2425 115.86484,0 L116.59359,0 C146.25484,0.2425 174.80484,3.45375 191.43109,11.09 C191.43109,11.09 224.40609,25.8425 224.40609,76.1725 C224.40609,76.1725 224.81984,113.30625 219.80734,139.0875" id="Path" fill="#3088D4"></path>
        <path d="M185.50984,80.077 L185.50984,141.01825 L161.36609,141.01825 L161.36609,81.86825 C161.36609,69.3995 156.11984,63.07075 145.62609,63.07075 C134.02359,63.07075 128.20859,70.57825 128.20859,85.42325 L128.20859,117.7995 L104.20734,117.7995 L104.20734,85.42325 C104.20734,70.57825 98.39109,63.07075 86.78859,63.07075 C76.29484,63.07075 71.04859,69.3995 71.04859,81.86825 L71.04859,141.01825 L46.90484,141.01825 L46.90484,80.077 C46.90484,67.622 50.07609,57.7245 56.44609,50.402 C63.01484,43.0795 71.61734,39.32575 82.29609,39.32575 C94.65109,39.32575 104.00734,44.0745 110.19359,53.57325 L116.20734,63.6545 L122.22234,53.57325 C128.40734,44.0745 137.76359,39.32575 150.11984,39.32575 C160.79734,39.32575 169.39984,43.0795 175.96984,50.402 C182.33859,57.7245 185.50984,67.622 185.50984,80.077" id="Path" fill="#FFFFFF"></path>
    </g>
</svg>