<?xml version="1.0" encoding="UTF-8"?>
<svg width="55px" height="20px" viewBox="0 0 55 20" version="1.1" xmlns="http://www.w3.org/2000/svg" xmlns:xlink="http://www.w3.org/1999/xlink">
  <defs>
    <linearGradient x1="0%" y1="8.21067812%" x2="100%" y2="91.7893219%" id="linearGradient-1">
      <stop stop-color="#F45A5A" offset="0%"></stop>
      <stop stop-color="#E13636" offset="100%"></stop>
    </linearGradient>
  </defs>
  <path d="M46.2091798,20 C45.5927414,20 45.1817825,19.9195531 44.7708236,19.7988827 L45.3050702,17.5463687 C45.4900017,17.5865922 45.757125,17.6670391 45.9831524,17.6670391 C46.9900017,17.6670391 47.5037003,17.1441341 47.7708236,16.3597765 L47.9146592,15.8368715 L43.9900017,6.12290503 L47.0310976,6.12290503 L48.4900017,10.4067039 C48.7776729,11.3117318 49.0242483,12.2569832 49.2913715,13.2424581 L49.3735633,13.2424581 C49.5995907,12.2972067 49.8256181,11.3519553 50.0721935,10.4067039 L51.3050702,6.12290503 L54.2023304,6.12290503 L50.6680839,16.1988827 C49.7023304,18.7128492 48.6132893,20 46.2091798,20 Z M41.7739726,16.3396648 C39.6986301,16.3396648 39,15.0122905 39,13.0011173 L39,2 L42.0205479,2 L42.0205479,13.1217877 C42.0205479,13.7452514 42.3082192,13.9463687 42.5547945,13.9463687 C42.6780822,13.9463687 42.760274,13.9463687 42.9246575,13.9061453 L43.2945205,16.098324 C42.9657534,16.2391061 42.4520548,16.3396648 41.7739726,16.3396648 Z M9.84326019,17 C8.51880878,17 6.99059561,16.4277929 5.97178683,15.5899183 L7.31661442,13.7098093 C8.23354232,14.4046322 9.06896552,14.7724796 9.92476489,14.7724796 C10.8213166,14.7724796 11.2084639,14.4455041 11.2084639,13.9141689 C11.2084639,13.239782 10.1896552,12.9332425 9.15047022,12.5245232 C7.92789969,12.0544959 6.48119122,11.2166213 6.48119122,9.54087193 C6.48119122,7.66076294 8.00940439,6.373297 10.3526646,6.373297 C11.9012539,6.373297 13.0423197,7.00681199 13.9184953,7.66076294 L12.5736677,9.45912807 C11.8401254,8.92779292 11.1473354,8.60081744 10.4341693,8.60081744 C9.65987461,8.60081744 9.29310345,8.88692098 9.29310345,9.39782016 C9.29310345,10.0517711 10.2304075,10.2970027 11.2695925,10.6852861 C12.5532915,11.1553134 14,11.8705722 14,13.7302452 C14,15.5694823 12.5532915,17 9.84326019,17 Z M1.04451406,16.7547684 L1.04451406,6.61852861 L4.03981186,6.61852861 L4.03981186,16.7547684 L1.04451406,16.7547684 Z M2.53197487,5.126703 C1.53354227,5.126703 0.799999952,4.47275204 0.799999952,3.55313351 C0.799999952,2.63351499 1.53354227,2 2.53197487,2 C3.55078365,2 4.2639498,2.63351499 4.2639498,3.55313351 C4.2639498,4.47275204 3.55078365,5.126703 2.53197487,5.126703 Z" fill="#000000"></path>
  <path d="M26.4926689,4.58578644 C26.4519896,4.82105446 26.2468923,5 26,5 C25.7531077,5 25.5480104,4.82105446 25.5073311,4.58578644 L25.5000688,4.58578644 C25.3055754,4.07014061 25.0008146,3.58660105 24.5857864,3.17157288 C23.0236893,1.60947571 20.4910294,1.60947571 18.9289322,3.17157288 C17.366835,4.73367004 17.366835,7.26632996 18.9289322,8.82842712 L26,15.8994949 L33.0710678,8.82842712 C34.633165,7.26632996 34.633165,4.73367004 33.0710678,3.17157288 C31.5089706,1.60947571 28.9763107,1.60947571 27.4142136,3.17157288 C26.9991854,3.58660105 26.6944246,4.07014061 26.4999312,4.58578644 L26.4926689,4.58578644 L26.4926689,4.58578644 Z M34.4852814,10.2426407 L26,18.7279221 L17.5147186,10.2426407 C15.1715729,7.89949494 15.1715729,4.10050506 17.5147186,1.75735931 C19.8578644,-0.585786437 23.6568542,-0.585786437 26,1.75735931 C28.3431458,-0.585786437 32.1421356,-0.585786437 34.4852814,1.75735931 C36.8284271,4.10050506 36.8284271,7.89949494 34.4852814,10.2426407 Z" fill="url(#linearGradient-1)"></path>
</svg>
