<?xml version="1.0" encoding="UTF-8" standalone="no"?>
<svg width="256px" height="192px" viewBox="0 0 256 192" version="1.1" xmlns="http://www.w3.org/2000/svg" xmlns:xlink="http://www.w3.org/1999/xlink" xmlns:sketch="http://www.bohemiancoding.com/sketch/ns">
    <!-- Generator: Sketch 3.0.4 (8053) - http://www.bohemiancoding.com/sketch -->
    <title>Desktop</title>
    <desc>Created with Sketch.</desc>
    <defs></defs>
    <g id="Devices" stroke="none" stroke-width="1" fill="none" fill-rule="evenodd" sketch:type="MSPage">
        <g id="Desktop" sketch:type="MSArtboardGroup">
            <path d="M96,188 L96,160 L160,160 L160,188 L190.002289,188 C191.114275,188 192,188.895431 192,190 L192,192 L64,192 L64,190 C64,188.88773 64.8944055,188 65.9977106,188 L96,188 Z M3.9954213,0 C1.78881105,0 0,1.796875 0,3.99499651 L0,156.005003 C0,158.211379 1.78890782,160 3.9954213,160 L252.004579,160 C254.211189,160 256,158.203125 256,156.005003 L256,3.99499651 C256,1.78862086 254.211092,0 252.004579,0 L3.9954213,0 Z" id="Device" fill="#4A4A4A" sketch:type="MSShapeGroup"></path>
            <rect id="Screen" fill="#4990E2" sketch:type="MSShapeGroup" x="8" y="8" width="240" height="144"></rect>
            <path d="M8,8 L8,152 L80,8 L8,8 Z" id="Reflection" fill-opacity="0.48" fill="#FFFFFF" sketch:type="MSShapeGroup"></path>
        </g>
    </g>
</svg>