<?xml version="1.0" encoding="utf-8"?>
<!-- Generator: Adobe Illustrator 14.0.0, SVG Export Plug-In . SVG Version: 6.00 Build 43363)  -->
<!DOCTYPE svg PUBLIC "-//W3C//DTD SVG 1.1 Tiny//EN" "http://www.w3.org/Graphics/SVG/1.1/DTD/svg11-tiny.dtd">
<svg version="1.1" baseProfile="tiny" id="Layer_1" xmlns="http://www.w3.org/2000/svg" xmlns:xlink="http://www.w3.org/1999/xlink"
	 x="0px" y="0px" width="36px" height="36px" viewBox="0 0 36 36" xml:space="preserve">
<path fill-rule="evenodd" fill="#181617" d="M17.999,0.445C8.06,0.445,0,8.503,0,18.446c0,7.951,5.157,14.697,12.311,17.078
	c0.9,0.165,1.229-0.391,1.229-0.868c0-0.427-0.015-1.56-0.024-3.061c-5.006,1.086-6.062-2.414-6.062-2.414
	c-0.819-2.078-1.999-2.631-1.999-2.631c-1.634-1.118,0.124-1.097,0.124-1.097c1.807,0.13,2.757,1.856,2.757,1.856
	c1.606,2.75,4.212,1.955,5.239,1.495c0.163-1.163,0.627-1.956,1.142-2.406c-3.997-0.453-8.199-1.998-8.199-8.896
	c0-1.964,0.702-3.571,1.853-4.83c-0.186-0.456-0.803-2.285,0.175-4.764c0,0,1.512-0.484,4.951,1.846
	c1.436-0.4,2.976-0.6,4.506-0.607c1.528,0.007,3.068,0.207,4.506,0.607c3.438-2.33,4.946-1.846,4.946-1.846
	c0.981,2.479,0.363,4.308,0.178,4.764c1.153,1.259,1.851,2.865,1.851,4.83c0,6.915-4.209,8.436-8.219,8.882
	c0.646,0.556,1.222,1.654,1.222,3.333c0,2.406-0.021,4.348-0.021,4.938c0,0.481,0.324,1.042,1.238,0.865
	C30.847,33.138,36,26.396,36,18.446C36,8.503,27.94,0.445,17.999,0.445"/>
</svg>
