<?xml version="1.0" encoding="utf-8"?>
<!-- Generator: Adobe Illustrator 14.0.0, SVG Export Plug-In . SVG Version: 6.00 Build 43363)  -->
<!DOCTYPE svg PUBLIC "-//W3C//DTD SVG 1.1 Tiny//EN" "http://www.w3.org/Graphics/SVG/1.1/DTD/svg11-tiny.dtd">
<svg version="1.1" baseProfile="tiny" id="Layer_1" xmlns="http://www.w3.org/2000/svg" xmlns:xlink="http://www.w3.org/1999/xlink"
	 x="0px" y="0px" width="20px" height="20px" viewBox="0 0 20 20" xml:space="preserve">
<path d="M10,0.248c-5.522,0-10,4.477-10,10c0,4.418,2.865,8.165,6.839,9.488c0.5,0.091,0.683-0.217,0.683-0.482
	c0-0.236-0.009-0.867-0.013-1.699c-2.782,0.604-3.368-1.343-3.368-1.343C3.686,15.059,3.03,14.75,3.03,14.75
	c-0.907-0.62,0.07-0.609,0.07-0.609c1.004,0.072,1.531,1.032,1.531,1.032c0.893,1.527,2.34,1.085,2.911,0.83
	c0.09-0.646,0.348-1.087,0.634-1.336c-2.221-0.253-4.555-1.11-4.555-4.943c0-1.091,0.39-1.983,1.029-2.683
	c-0.103-0.254-0.446-1.27,0.098-2.647c0,0,0.84-0.269,2.751,1.025c0.798-0.222,1.653-0.333,2.503-0.337
	c0.85,0.004,1.704,0.115,2.503,0.337c1.91-1.294,2.747-1.025,2.747-1.025c0.545,1.377,0.202,2.393,0.1,2.646
	c0.642,0.7,1.028,1.592,1.028,2.683c0,3.841-2.338,4.687-4.565,4.935c0.358,0.309,0.679,0.919,0.679,1.852
	c0,1.338-0.013,2.416-0.013,2.743c0,0.267,0.182,0.579,0.688,0.479C17.137,18.41,20,14.666,20,10.248
	C20,4.724,15.521,0.248,10,0.248"/>
</svg>
