<?xml version="1.0" encoding="utf-8"?>
<!-- Generator: Adobe Illustrator 14.0.0, SVG Export Plug-In . SVG Version: 6.00 Build 43363)  -->
<!DOCTYPE svg PUBLIC "-//W3C//DTD SVG 1.1 Tiny//EN" "http://www.w3.org/Graphics/SVG/1.1/DTD/svg11-tiny.dtd">
<svg version="1.1" baseProfile="tiny" id="Layer_1" xmlns="http://www.w3.org/2000/svg" xmlns:xlink="http://www.w3.org/1999/xlink"
	 x="0px" y="0px" width="240px" height="240px" viewBox="0 0 240 240" xml:space="preserve">
<path d="M0,75c0-35,25-60,60-60c19.998,0,59.998,10,59.998,45c0-35,39.998-45,60.002-45c35,0,60,25,60,60
	c-0.005,80-120.002,120-120.002,150l0,0C119.998,195-0.002,155,0,75z"/>
<path fill="#FFFFFF" d="M193.101,40.94c3.993,4.001,11.997,12,15.996,16c4.009,4.004,10,8.667,5.337,13.335
	c-2.671,2.667-10.669,0.002-14.668-4c-2.672-2.668-13.336-16.005-17.333-17.332c-4.006-1.34-4.006,3.997-2.672,5.329
	c4.009,4,14.666,14.668,16.006,16.001c5.166,5.168,16.67,10.002,22.671,4.001c1.997-2.004,2.739-3.252,3.12-3.878
	c0.369-0.629,0.369-0.629,0.879-0.124c2.661,2.667,4.996,5,5.99,7.333c1.007,2.332,0.68,4.668-1.992,7.333
	c-1.338,1.333-2.665,2-4.169,2.166c-1.505,0.168-3.169-0.168-5.161-0.834c-2.008-0.667-3.014,0.333-3.342,1.665
	c-0.33,1.337,0,3.005,0.671,3.667c2.001,2.004,5,2.336,8.003,1.672c3.004-0.671,5.996-2.339,7.988-4.336
	c2.002-2,3.817-4.439,4.391-7.324c0.564-2.883-0.1-6.21-3.043-10.009c-4.674-6-12.236-13.567-19.184-20.18
	c-6.953-6.621-12.823-14.485-16.822-15.822C191.763,34.271,191.763,39.607,193.101,40.94z"/>
<path fill="#FFFFFF" d="M187.988,104.72c5.337-5.331,2.194-34.187-19.146-55.528c-16.006-15.996-26.191-16.477-31.519-11.143
	c-5.337,5.33-4.487,15.146,11.519,31.144c21.328,21.336,49.814,24.859,55.146,19.524c5.342-5.332,2.666-10.668,0-10.668
	c-5.338,0-1.333,4.001-4.005,6.669c-2.667,2.664-28.485-0.852-44.481-16.854c-5.327-5.333-19.526-17.817-12.852-24.484
	c6.674-6.665,19.521,7.146,24.861,12.48c15.996,16,19.146,42.188,16.472,44.856c-2.656,2.667-6.655-1.337-6.655,4.001
	C177.329,107.385,182.661,110.053,187.988,104.72z"/>
<path fill="#FFFFFF" d="M172.472,120.24c-4.008,4.005-13.342,5.335-25.342-6.666c-12.002-12-10.674-21.337-6.672-25.337
	c4.006-4.005,13.336-2.666,18.672,2.667c8.006,8.002,1.344,17.338-2.656,18.667c-4.008,1.337-6.674-1.328-5.341-2.667
	c4.005-4.002,7.997-7.999,4.005-12.002c-2.672-2.667-6.672-3.998-9.33-1.33c-2.678,2.664-4.006,6.668,5.325,15.999
	c9.336,9.336,14.669,9.336,17.331,6.669c2.669-2.667,2.669-5.334,1.336-9.336c-0.839-2.529,4.01-4.002,5.333-2.667
	C178.739,107.844,176.472,116.24,172.472,120.24z"/>
<path fill="#FFFFFF" d="M112.83,115.879c-1.34,1.328-2.671,5.332,1.331,6.663c3.999,1.34,32.007,24.006,38.809,17.203
	c6.523-6.531-16.144-34.53-17.476-38.534c-1.328-4.004-5.332-2.667-6.67-1.338c-3.994,4.002,21.338,32.007,18.672,34.669
	C144.829,137.216,116.831,111.875,112.83,115.879z"/>
<path fill="#FFFFFF" d="M101.8,126.909c-4.001,4-5.332,13.33,6.665,25.333c12,12.003,21.334,10.669,25.334,6.664
	c4.002-4.004,5.336-13.331-6.67-25.337C115.135,121.575,105.793,122.906,101.8,126.909z M129.8,154.902
	c-2.664,2.671-9.335,1.343-17.333-6.665c-9.336-9.326-9.336-14.668-6.666-17.328c2.664-2.672,8.005-2.672,17.332,6.669
	C132.472,146.909,132.472,152.242,129.8,154.902z"/>
<path fill="#FFFFFF" d="M103.613,189.097c5.332-5.327,2.18-34.195-19.148-55.529c-16.001-15.993-26.189-16.476-31.521-11.143
	c-5.333,5.338-4.483,15.153,11.517,31.148c21.334,21.328,49.814,24.863,55.155,19.523c5.331-5.339,2.665-10.67-0.004-10.67
	c-5.337,0-1.333,3.998-3.995,6.664c-2.67,2.672-28.489-0.849-44.49-16.852c-5.332-5.33-19.514-17.812-12.852-24.477
	c6.668-6.672,19.518,7.148,24.852,12.477c16,16.006,19.15,42.193,16.484,44.852c-2.667,2.672-6.668-1.326-6.668,4.006
	C92.944,191.769,98.281,194.427,103.613,189.097z"/>
<path fill="#FFFFFF" d="M69.136,78.984c-4.001-1.335-3.999,3.999-2.664,5.332c3.997,4.001,11.995,1.331,15.999-2.668
	c4-3.999,6.669-12.001,1.333-17.332c-6.669-6.669-25.333,1.333-29.336-2.667c-2.671-2.668-2.671-5.332,0-8.002
	c2.667-2.668,5.332-2.668,9.336-1.333c4,1.331,4-4.001,2.664-5.334c-4.004-4.001-12-1.334-16.001,2.668
	c-4.001,3.998-5.336,10.669,0,16.002c6.66,6.667,25.337-1.334,29.336,2.664c2.668,2.668,1.336,6.668-1.334,9.336
	C75.804,80.317,73.137,80.317,69.136,78.984z"/>
<path fill="#FFFFFF" d="M66.468,92.314c-3.998-3.998-24.001-26.666-28-27.999c-4.004-1.333-4.001,3.999-2.671,5.329
	c4.001,4.001,24.004,26.669,28.008,28.009C67.803,98.981,67.803,93.652,66.468,92.314z"/>
</svg>
