<?xml version="1.0" encoding="utf-8"?>
<!-- Generator: Adobe Illustrator 14.0.0, SVG Export Plug-In . SVG Version: 6.00 Build 43363)  -->
<!DOCTYPE svg PUBLIC "-//W3C//DTD SVG 1.1 Tiny//EN" "http://www.w3.org/Graphics/SVG/1.1/DTD/svg11-tiny.dtd">
<svg version="1.1" baseProfile="tiny" id="Layer_1" xmlns="http://www.w3.org/2000/svg" xmlns:xlink="http://www.w3.org/1999/xlink"
	 x="0px" y="0px" width="54px" height="48px" viewBox="0 0 54 48" xml:space="preserve">
<g>
	<path d="M26.833,47.973c1.144,0.474,16.84-5.082,24.418-23.377c5.683-13.722-0.426-21.612-5.729-23.809
		c-4.987-2.065-14.886-0.805-20.569,12.915C17.374,31.997,25.69,47.498,26.833,47.973l3.708-2.484
		c-2.285-0.946-9.263-13.213-2.633-29.223C32.171,5.974,38.382,1.85,44.101,4.217c5.718,2.369,7.511,9.81,3.248,20.101
		c-6.632,16.009-19.093,20.225-21.38,19.278L26.833,47.973z"/>
	<path d="M28.03,43.596c-2.286,0.946-14.747-3.27-21.379-19.278C2.389,14.027,4.182,6.585,9.898,4.217
		c5.719-2.367,11.93,1.757,16.193,12.048c6.629,16.01-0.347,28.277-2.633,29.223l3.708,2.484c1.145-0.475,9.46-15.976,1.88-34.271
		C23.363-0.018,13.464-1.278,8.478,0.787C3.173,2.984-2.935,10.874,2.749,24.596c7.577,18.295,23.274,23.851,24.417,23.377
		L28.03,43.596z"/>
</g>
</svg>
