<?xml version="1.0" encoding="utf-8"?>
<!-- Generator: Adobe Illustrator 14.0.0, SVG Export Plug-In . SVG Version: 6.00 Build 43363)  -->
<!DOCTYPE svg PUBLIC "-//W3C//DTD SVG 1.1//EN" "http://www.w3.org/Graphics/SVG/1.1/DTD/svg11.dtd">
<svg version="1.1" id="Layer_2" xmlns="http://www.w3.org/2000/svg" xmlns:xlink="http://www.w3.org/1999/xlink" x="0px" y="0px"
	 width="54px" height="48px" viewBox="0 0 54 48" enable-background="new 0 0 54 48" xml:space="preserve">
<path d="M45.522,0.785C41.092-1.05,32.783-0.251,27,9.573C21.216-0.251,12.908-1.05,8.478,0.785
	C3.172,2.981-2.937,10.872,2.748,24.595C10.11,42.369,25.132,48.12,27.03,47.998c2.126,0.009,16.93-5.798,24.223-23.403
	C56.936,10.872,50.827,2.981,45.522,0.785z M24.936,13.745c-5.068,12.272-2.99,23.274-0.731,29.326
	c-4.833-1.717-12.73-7.109-17.555-18.754C2.388,14.025,4.181,6.583,9.897,4.214C15.121,2.053,20.75,5.323,24.936,13.745
	C24.936,13.745,24.936,13.745,24.936,13.745z M26.996,40.146C25.12,35.35,23.951,27.714,27,18.7c0-0.002,0.001-0.004,0.002-0.007
	C30.058,27.721,28.875,35.351,26.996,40.146z M47.351,24.317c-4.822,11.641-12.725,17.042-17.559,18.762
	c2.261-6.052,4.342-17.058-0.729-29.334c4.185-8.422,9.815-11.692,15.039-9.531C49.819,6.584,51.613,14.025,47.351,24.317z"/>
</svg>
