<?xml version="1.0" encoding="utf-8"?>
<!-- Generator: Adobe Illustrator 14.0.0, SVG Export Plug-In . SVG Version: 6.00 Build 43363)  -->
<!DOCTYPE svg PUBLIC "-//W3C//DTD SVG 1.1 Tiny//EN" "http://www.w3.org/Graphics/SVG/1.1/DTD/svg11-tiny.dtd">
<svg version="1.1" baseProfile="tiny" id="Layer_1" xmlns="http://www.w3.org/2000/svg" xmlns:xlink="http://www.w3.org/1999/xlink"
	 x="0px" y="0px" width="240px" height="240px" viewBox="0 0 240 240" xml:space="preserve">
<path d="M120,226.497L19.259,125.756c-25.679-25.678-25.679-67.314,0-92.993c25.68-25.68,67.313-25.679,92.993,0l7.75,7.75
	c0,0,7.751-7.748,7.75-7.75c25.678-25.677,67.314-25.677,92.99,0.001c25.678,25.677,25.678,67.314,0,92.99L120,226.497z"/>
<path fill="#FFFFFF" d="M231.439,87.01c2.104-2.104,4.008-4.664,4.609-7.697c0.598-3.035-0.102-6.541-3.207-10.531
	c-4.906-6.31-12.863-14.266-20.17-21.223c-7.309-6.958-13.482-15.235-17.691-16.639c-4.205-1.402-4.205,4.208-2.803,5.61
	c4.205,4.207,12.619,12.621,16.826,16.827c4.209,4.208,10.518,9.115,5.611,14.022c-2.807,2.805-11.219,0.001-15.428-4.206
	c-2.805-2.804-14.021-16.827-18.229-18.229c-4.205-1.402-4.205,4.206-2.803,5.608c4.205,4.207,15.422,15.425,16.824,16.827
	c5.439,5.437,17.531,10.518,23.84,4.208c2.104-2.103,2.893-3.418,3.287-4.075c0.393-0.658,0.393-0.658,0.92-0.132
	c2.805,2.804,5.258,5.258,6.309,7.713c1.055,2.454,0.701,4.907-2.102,7.71L113.65,196.39c-1.402,1.402-2.804,2.104-4.382,2.278
	c-1.579,0.174-3.329-0.175-5.434-0.878c-2.104-0.701-3.155,0.351-3.507,1.753c-0.349,1.402,0,3.156,0.703,3.857
	c2.103,2.104,5.258,2.454,8.415,1.751c3.153-0.701,6.31-2.452,8.413-4.555L231.439,87.01z"/>
<path fill="#FFFFFF" d="M188.207,102.2c5.609-5.61,2.301-35.954-20.137-58.391c-16.826-16.826-27.539-17.332-33.148-11.723
	c-5.607,5.609-4.711,15.931,12.113,32.756c22.438,22.438,52.391,26.139,58,20.528c5.609-5.608,2.805-11.218,0-11.218
	c-5.609,0.001-1.402,4.208-4.207,7.012s-29.953-0.897-46.779-17.724c-5.609-5.609-20.529-18.734-13.518-25.746
	c7.012-7.01,20.527,7.516,26.137,13.125C183.496,67.648,186.805,95.188,184,97.992s-7.01-1.402-7.01,4.208
	C176.99,105.005,182.598,107.809,188.207,102.2z"/>
<path fill="#FFFFFF" d="M171.885,118.522c-4.207,4.206-14.023,5.608-26.645-7.011c-12.619-12.621-11.217-22.438-7.01-26.644
	c4.205-4.208,14.025-2.805,19.633,2.804c8.412,8.413,1.402,18.228-2.805,19.63c-4.207,1.404-7.012-1.4-5.607-2.805
	c4.207-4.206,8.412-8.413,4.205-12.619c-2.805-2.804-7.012-4.207-9.816-1.402c-2.803,2.804-4.207,7.011,5.609,16.828
	c9.816,9.816,15.426,9.814,18.229,7.011c2.805-2.805,2.805-5.608,1.402-9.817c-0.887-2.661,4.207-4.206,5.609-2.804
	C178.48,105.485,176.092,114.316,171.885,118.522z"/>
<path fill="#FFFFFF" d="M109.166,113.933c-1.402,1.402-2.805,5.608,1.402,7.013c4.207,1.402,33.655,25.24,40.812,18.082
	c6.865-6.863-16.971-36.312-18.373-40.518c-1.404-4.208-5.611-2.806-7.016-1.402c-4.205,4.207,22.438,33.653,19.635,36.458
	C142.82,136.37,113.372,109.727,109.166,113.933z"/>
<path fill="#FFFFFF" d="M97.565,125.533c-4.207,4.206-5.608,14.022,7.011,26.644c12.621,12.619,22.438,11.217,26.643,7.011
	c4.207-4.206,5.609-14.023-7.01-26.644C111.588,119.925,101.771,121.326,97.565,125.533z M127.014,154.981
	c-2.805,2.804-9.817,1.402-18.232-7.011c-9.814-9.816-9.814-15.427-7.01-18.231s8.413-2.805,18.229,7.013
	C129.818,146.568,129.818,152.177,127.014,154.981z"/>
<path fill="#FFFFFF" d="M99.475,190.933c5.608-5.608,2.297-35.951-20.141-58.389c-16.825-16.826-27.537-17.331-33.146-11.723
	c-5.61,5.61-4.711,15.933,12.114,32.758c22.436,22.436,52.39,26.137,57.998,20.528c5.61-5.61,2.804-11.221,0-11.221
	c-5.608,0-1.402,4.206-4.207,7.013c-2.804,2.806-29.952-0.897-46.781-17.723c-5.608-5.61-20.528-18.734-13.514-25.745
	c7.01-7.011,20.524,7.514,26.135,13.124c16.827,16.828,20.137,44.366,17.333,47.171c-2.804,2.804-7.011-1.402-7.013,4.206
	C88.253,193.737,93.864,196.543,99.475,190.933z"/>
<path fill="#FFFFFF" d="M69.519,77.857c-4.206-1.402-4.206,4.207-2.804,5.609c4.207,4.206,12.619,1.402,16.828-2.805
	c4.206-4.206,7.012-12.62,1.402-18.229c-7.012-7.013-26.644,1.402-30.85-2.804c-2.804-2.805-2.803-5.61,0.002-8.414
	c2.804-2.804,5.606-2.805,9.812-1.403c4.208,1.402,4.208-4.207,2.806-5.608c-4.206-4.208-12.621-1.402-16.827,2.804
	c-4.208,4.207-5.61,11.218,0,16.827c7.011,7.011,26.642-1.402,30.849,2.805c2.804,2.804,1.402,7.011-1.402,9.815
	S73.725,79.259,69.519,77.857z"/>
<path fill="#FFFFFF" d="M66.714,91.88c-4.206-4.208-25.242-28.045-29.448-29.448c-4.206-1.402-4.206,4.206-2.804,5.608
	c4.207,4.207,25.242,28.044,29.448,29.448C68.117,98.891,68.117,93.282,66.714,91.88z"/>
</svg>
