<?xml version="1.0" encoding="utf-8"?>
<!-- Generator: Adobe Illustrator 14.0.0, SVG Export Plug-In . SVG Version: 6.00 Build 43363)  -->
<!DOCTYPE svg PUBLIC "-//W3C//DTD SVG 1.1 Tiny//EN" "http://www.w3.org/Graphics/SVG/1.1/DTD/svg11-tiny.dtd">
<svg version="1.1" baseProfile="tiny" id="Layer_1" xmlns="http://www.w3.org/2000/svg" xmlns:xlink="http://www.w3.org/1999/xlink"
	 x="0px" y="0px" width="180px" height="180px" viewBox="0 0 180 180" xml:space="preserve">
<g id="Layer_1_1_">
	<path d="M0,52.5c0-26.25,18.75-45,45-45s45,18.75,45,45c0-26.25,18.75-45,45-45s45,18.75,45,45c-0.004,60-90,97.5-90,120l0,0
		C90,150,0,112.5,0,52.5z"/>
</g>
<g id="Layer_2">
	<path fill="#FFFFFF" d="M81.728,97.713c-3.507,3.508-4.673,11.686,5.846,22.207c10.52,10.521,18.701,9.353,22.202,5.844
		c3.508-3.508,4.68-11.686-5.841-22.203C93.417,93.039,85.234,94.208,81.728,97.713z M106.274,122.256
		c-2.337,2.336-8.181,1.172-15.194-5.841c-8.179-8.185-8.179-12.861-5.843-15.198c2.336-2.336,7.011-2.336,15.196,5.845
		C108.614,115.246,108.611,119.92,106.274,122.256z"/>
	<path fill="#FFFFFF" d="M84.487,151.055c4.676-4.677,1.917-29.971-16.78-48.67c-14.022-14.023-22.954-14.443-27.627-9.77
		c-4.677,4.68-3.93,13.278,10.095,27.305c18.698,18.694,43.663,21.778,48.336,17.105c4.681-4.673,2.344-9.35,0-9.35
		c-4.673,0-1.168,3.508-3.505,5.845c-2.34,2.337-24.962-0.743-38.988-14.77c-4.677-4.677-17.107-15.611-11.265-21.456
		c5.85-5.849,17.107,6.266,21.788,10.936c14.024,14.025,16.785,36.979,14.445,39.316c-2.336,2.336-5.843-1.169-5.843,3.512
		C75.143,153.384,79.815,155.721,84.487,151.055z"/>
	<path fill="#FFFFFF" d="M126.855,108.684c4.549-4.555-21.16-25.587-15.314-33.77c3.962-5.543-0.945-8.025-5.846-1.167
		c-5.848,8.179,15.191,26.879,14.016,28.044c-1.168,1.172-19.863-19.869-28.041-14.019c-6.859,4.896-4.378,9.807,1.164,5.845
		C101.023,87.773,122.059,113.488,126.855,108.684z"/>
	<path fill="#FFFFFF" d="M143.672,91.867c-3.512,3.509-11.689,4.677-22.207-5.842c-10.521-10.52-9.346-18.697-5.849-22.204
		c3.513-3.506,11.689-2.336,16.358,2.34c7.018,7.013,1.172,12.854-2.336,16.36c-3.501,3.506-4.669-2.34-4.669-2.34
		c4.669-4.673,7.005-7.011,3.501-10.518c-2.326-2.336-5.838-3.502-8.174-1.166c-2.337,2.336-3.512,5.843,4.673,14.024
		c8.181,8.181,12.854,8.181,15.19,5.843c2.336-2.336,2.336-4.676,1.168-8.183c-0.736-2.215,3.505-3.506,4.673-2.336
		C149.172,81.004,147.18,88.361,143.672,91.867z"/>
	<path fill="#FFFFFF" d="M155.779,79.763c4.672-4.677,1.918-29.967-16.78-48.664c-14.026-14.024-22.954-14.445-27.627-9.772
		c-4.681,4.677-3.926,13.279,10.093,27.303c18.695,18.699,43.667,21.784,48.332,17.108c4.681-4.671,2.344-9.348,0-9.348
		c-4.672,0-1.168,3.506-3.5,5.843c-2.337,2.338-24.961-0.747-38.987-14.771c-4.673-4.677-17.109-15.615-11.265-21.458
		c5.841-5.843,17.105,6.266,21.782,10.938c14.026,14.024,16.78,36.975,14.45,39.314c-2.344,2.34-5.852-1.17-5.852,3.507
		C146.434,82.099,151.105,84.439,155.779,79.763z"/>
	<path fill="#FFFFFF" d="M52.031,63.532c-3.506-1.17-3.506,3.506-2.336,4.676c3.506,3.506,10.52,1.17,14.026-2.34
		c3.501-3.506,5.837-10.52,1.167-15.19c-5.847-5.847-22.202,1.17-25.707-2.336c-2.34-2.34-2.34-4.677,0-7.017
		c2.335-2.336,4.671-2.336,8.178-1.17c3.506,1.17,3.506-3.503,2.34-4.673c-3.506-3.507-10.518-1.17-14.024,2.336
		c-3.506,3.507-4.676,9.354,0,14.026c5.841,5.841,22.204-1.17,25.707,2.336c2.344,2.338,1.17,5.845-1.167,8.182
		C57.874,64.702,55.538,64.702,52.031,63.532z"/>
	<path fill="#FFFFFF" d="M46.392,78.228c0,0,1.17,1.17,2.34,0c1.167-1.167,0,0,1.167-1.167c0.588-0.584,0.588-1.17,0.438-1.607
		c-0.146-0.439-0.438-0.732-0.438-0.732L26.524,51.348c0,0-0.293-0.291-0.729-0.438c-0.438-0.146-1.02-0.146-1.607,0.438
		c-1.167,1.167-0.875,0.874-1.167,1.167c-1.17,1.17,0,2.34,0,2.34L46.392,78.228z"/>
</g>
</svg>
