<?xml version="1.0" encoding="utf-8"?>
<!-- Generator: Adobe Illustrator 14.0.0, SVG Export Plug-In . SVG Version: 6.00 Build 43363)  -->
<!DOCTYPE svg PUBLIC "-//W3C//DTD SVG 1.1//EN" "http://www.w3.org/Graphics/SVG/1.1/DTD/svg11.dtd">
<svg version="1.1" id="Layer_1" xmlns="http://www.w3.org/2000/svg" xmlns:xlink="http://www.w3.org/1999/xlink" x="0px" y="0px"
	 width="120px" height="120px" viewBox="0 0 120 120" enable-background="new 0 0 120 120" xml:space="preserve">
<g id="Layer_1_1_">
	<g>
		<path fill="none" stroke="#000000" d="M59.743,103.643c2.465-3.049-0.519-18.071-12.717-27.929
			c-9.146-7.396-14.662-6.812-17.126-3.763c-2.465,3.048-1.882,8.564,7.266,15.959c12.197,9.861,27.506,9.633,29.974,6.585
			c2.464-3.049,0.794-5.661-0.585-5.515c-2.755,0.291-0.471,2.141-1.702,3.666c-1.232,1.523-15.165,1.604-24.313-5.791
			c-3.05-2.465-10.672-8.63-7.591-12.44c3.083-3.812,10.705,2.354,13.754,4.817c9.146,7.393,11.986,21.036,10.753,22.561
			c-1.233,1.524-3.519-0.325-3.227,2.434C54.374,105.604,57.277,106.691,59.743,103.643z"/>
		<g>
			<path fill="none" stroke="#000000" d="M70.793,85.298c1.232-1.523,0.94-4.283-4.396-8.596c-5.335-4.315-8.094-4.022-9.327-2.498
				s-0.942,4.282,4.395,8.597C66.039,86.498,69.56,86.82,70.793,85.298z"/>
			<path fill="none" stroke="#000000" d="M68.246,74.415c-6.861-5.547-11.614-4.348-13.461-2.06
				c-1.849,2.287-2.028,7.185,4.833,12.731c6.859,5.547,11.613,4.347,13.461,2.06C74.93,84.86,75.106,79.961,68.246,74.415z"/>
		</g>
		<path fill="none" stroke="#000000" d="M82.084,76.011c2.4-2.97-14.08-13.772-11.145-18.962c1.994-3.518-1.058-4.675-3.518-0.325
			c-2.936,5.19,10.639,14.906,10.023,15.667c-0.616,0.764-12.959-10.477-17.417-6.52c-3.739,3.318-1.968,6.059,1.054,3.374
			C65.54,65.284,79.555,79.137,82.084,76.011z"/>
		<path fill="none" stroke="#000000" d="M90.953,65.039c-1.851,2.288-6.603,3.489-13.461-2.06
			c-6.862-5.546-6.684-10.445-4.835-12.731c1.849-2.288,6.747-2.108,9.797,0.357c4.571,3.697,1.49,7.509-0.358,9.795
			c-1.847,2.288-2.902-1.087-2.902-1.087c2.465-3.05,3.7-4.573,1.41-6.422c-1.524-1.232-3.666-1.703-4.896-0.179
			c-1.237,1.524-1.706,3.665,3.627,7.979c5.339,4.313,8.096,4.021,9.328,2.497c1.234-1.525,1.087-2.904,0.181-4.898
			c-0.576-1.262,1.849-2.287,2.608-1.669C93.516,58.289,92.803,62.754,90.953,65.039z"/>
		<path fill="none" stroke="#000000" d="M97.338,57.142c2.466-3.049-0.521-18.068-12.717-27.929
			c-9.148-7.396-14.661-6.811-17.125-3.762c-2.468,3.048-1.883,8.564,7.265,15.96c12.196,9.86,27.508,9.634,29.973,6.586
			c2.466-3.051,0.794-5.662-0.585-5.517c-2.757,0.293-0.469,2.141-1.701,3.666c-1.232,1.524-15.164,1.606-24.313-5.791
			c-3.049-2.466-10.671-8.629-7.59-12.439c3.082-3.812,10.704,2.351,13.754,4.816c9.147,7.397,11.983,21.036,10.754,22.561
			c-1.232,1.524-3.521-0.323-3.228,2.434C91.969,59.104,94.871,60.191,97.338,57.142z"/>
	</g>
</g>
<g id="Layer_2">
	<path fill="none" stroke="#000000" stroke-width="2" d="M59.999,111.044c0,0,40.838-27.224,54.449-54.447
		c3.403-6.806,3.403-20.417,0-27.223c-6.808-13.612-13.609-20.417-27.224-20.417c-13.612,0-27.227,20.417-27.227,20.417
		S46.388,8.957,32.777,8.957c-13.612,0-20.421,6.802-27.225,20.417c-3.401,6.805-3.402,20.417,0,27.223
		C19.166,83.82,59.999,111.044,59.999,111.044z"/>
</g>
</svg>
