<?xml version="1.0" encoding="utf-8"?>
<!-- Generator: Adobe Illustrator 14.0.0, SVG Export Plug-In . SVG Version: 6.00 Build 43363)  -->
<!DOCTYPE svg PUBLIC "-//W3C//DTD SVG 1.1 Tiny//EN" "http://www.w3.org/Graphics/SVG/1.1/DTD/svg11-tiny.dtd">
<svg version="1.1" baseProfile="tiny" id="Layer_1" xmlns="http://www.w3.org/2000/svg" xmlns:xlink="http://www.w3.org/1999/xlink"
	 x="0px" y="0px" width="70px" height="60px" viewBox="0 0 70 60" xml:space="preserve">
<g>
	<path d="M35.721,59.963c1.429,0.592,21.05-6.352,30.521-29.221c7.104-17.151-0.531-27.013-7.161-29.76
		c-6.233-2.581-18.606-1.006-25.71,16.143C23.897,39.994,34.291,59.37,35.721,59.963l4.635-3.105
		c-2.858-1.183-11.579-16.516-3.291-36.528C42.393,7.467,50.156,2.311,57.304,5.27c7.146,2.961,9.388,12.262,4.06,25.125
		c-8.29,20.011-23.866,25.28-26.724,24.096L35.721,59.963z"/>
	<path d="M35.721,59.963c1.429-0.593,10.391-19.375,0.919-42.244C29.535,0.568,17.163-1.006,10.533,1.738
		C4.299,4.322-3.336,14.185,3.768,31.333C13.241,54.203,34.291,60.555,35.721,59.963l1.082-5.473
		c-2.859,1.185-19.867-3.491-28.157-23.503C3.318,18.125,5.161,8.989,12.308,6.027c7.148-2.959,15.309,2.032,20.635,14.895
		c8.289,20.013,1,34.753-1.858,35.936L35.721,59.963z"/>
</g>
</svg>
