<?xml version="1.0" encoding="utf-8"?>
<!-- Generator: Adobe Illustrator 14.0.0, SVG Export Plug-In . SVG Version: 6.00 Build 43363)  -->
<!DOCTYPE svg PUBLIC "-//W3C//DTD SVG 1.1//EN" "http://www.w3.org/Graphics/SVG/1.1/DTD/svg11.dtd">
<svg version="1.1" id="Layer_1" xmlns="http://www.w3.org/2000/svg" xmlns:xlink="http://www.w3.org/1999/xlink" x="0px" y="0px"
	 width="180px" height="180px" viewBox="0 0 180 180" enable-background="new 0 0 180 180" xml:space="preserve">
<g id="Layer_2">
	<path d="M175.973,41.644c-10.752-21.493-21.49-32.238-42.986-32.238c-21.494,0-42.99,32.238-42.99,32.238
		S68.505,9.406,47.015,9.406c-21.49,0-32.244,10.741-42.987,32.238c-5.37,10.746-5.371,32.237,0,42.983
		c21.497,42.986,85.969,85.967,85.969,85.967s64.483-42.979,85.976-85.967C181.343,73.881,181.343,52.391,175.973,41.644z
		 M107.234,130.4c-1.969,2.428-7.594,1.916-14.896-3.99c-8.522-6.887-8.989-11.289-7.019-13.729
		c1.971-2.434,6.378-2.902,14.895,3.988C108.734,123.562,109.2,127.969,107.234,130.4z"/>
	<path fill="none" stroke="#FFFFFF" stroke-width="2" d="M100.213,116.672c-8.516-6.893-12.923-6.422-14.894-3.99
		c-1.969,2.439-1.503,6.842,7.019,13.729c7.305,5.905,12.928,6.418,14.895,3.989C109.2,127.969,108.734,123.562,100.213,116.672z"/>
</g>
<g id="Layer_1_1_">
	<g>
		<path fill="#FFFFFF" stroke="#FFFFFF" d="M58.923,132.887c-4.871-3.936-17.042-13.783-12.122-19.867
			c4.923-6.088,17.094,3.764,21.962,7.691c7.545,6.102,12.399,14.855,15.059,22.24c1.797,0.242,3.497,0.391,5.052,0.451
			c-2.897-8.98-9.114-19.834-19.597-28.311c-14.604-11.811-23.412-10.875-27.347-6.008c-3.938,4.867-3.005,13.68,11.604,25.482
			c10.482,8.473,22.399,12.279,31.79,13.232c-0.387-1.512-0.886-3.141-1.501-4.85C76.047,141.895,66.468,138.984,58.923,132.887z"/>
		<path fill="#FFFFFF" stroke="#FFFFFF" d="M85.325,147.803c1.178,4.596,1.328,8.053,0.611,8.938
			c-1.971,2.432-5.62-0.521-5.155,3.885c0.232,2.199,4.869,3.938,8.806-0.931c1.437-1.776,1.706-6.108,0.533-11.649
			C88.619,148.047,87.014,147.969,85.325,147.803z"/>
		<path fill="#FFFFFF" stroke="#FFFFFF" d="M100.465,136.277c-4.398,0.469-0.75,3.42-2.715,5.854
			c-0.716,0.889-4.129,1.463-8.874,1.271c0.522,1.617,0.933,3.173,1.246,4.642c5.664-0.012,9.842-1.185,11.28-2.959
			C105.336,140.217,102.67,136.045,100.465,136.277z"/>
		<path fill="#FFFFFF" stroke="#FFFFFF" d="M83.823,142.951c0.616,1.709,1.115,3.34,1.501,4.85c1.688,0.168,3.295,0.244,4.797,0.242
			c-0.313-1.471-0.724-3.023-1.246-4.641C87.319,143.342,85.621,143.193,83.823,142.951z"/>
		<g>
			<path fill="#FFFFFF" stroke="#FFFFFF" d="M103.168,113.02c-10.958-8.855-18.549-6.943-21.497-3.287
				c-2.953,3.652-3.239,11.473,7.716,20.326c10.952,8.861,18.544,6.943,21.496,3.295
				C113.839,129.695,114.121,121.875,103.168,113.02z M107.234,130.4c-1.969,2.428-7.594,1.916-14.896-3.99
				c-8.522-6.887-8.989-11.289-7.019-13.729c1.971-2.434,6.378-2.902,14.895,3.988C108.734,123.562,109.2,127.969,107.234,130.4z"/>
			<path d="M100.213,116.672c-8.516-6.893-12.923-6.422-14.894-3.99c-1.969,2.439-1.503,6.842,7.019,13.729
				c7.305,5.905,12.928,6.418,14.895,3.989C109.2,127.969,108.734,123.562,100.213,116.672z"/>
		</g>
		<path fill="#FFFFFF" stroke="#FFFFFF" d="M107.471,85.289c3.184-5.618-1.693-7.465-5.621-0.519
			c-4.688,8.289,16.989,23.802,16.004,25.019c-0.98,1.217-20.692-16.73-27.812-10.414c-5.971,5.303-3.142,9.676,1.683,5.389
			c7.123-6.324,29.504,15.799,33.543,10.805C129.1,110.826,102.779,93.574,107.471,85.289z"/>
		<path fill="#FFFFFF" stroke="#FFFFFF" d="M139.427,98.047c-2.956,3.654-10.543,5.572-21.497-3.287
			c-10.955-8.858-10.672-16.684-7.719-20.332c2.95-3.654,10.773-3.367,15.645,0.569c7.303,5.903,2.377,11.992-0.571,15.644
			c-2.95,3.65-4.636-1.739-4.636-1.739c3.938-4.87,5.91-7.302,2.252-10.255c-2.437-1.967-5.855-2.719-7.819-0.285
			c-1.978,2.433-2.728,5.853,5.791,12.742c8.524,6.885,12.935,6.42,14.896,3.986c1.971-2.438,1.733-4.638,0.289-7.821
			c-0.922-2.016,2.951-3.653,4.164-2.666C143.521,87.269,142.381,94.398,139.427,98.047z"/>
		<path fill="#FFFFFF" stroke="#FFFFFF" d="M149.624,85.437c3.938-4.868-0.833-28.852-20.308-44.599
			c-14.608-11.811-23.414-10.877-27.349-6.006c-3.94,4.866-3.005,13.674,11.604,25.485c19.477,15.746,43.928,15.385,47.865,10.517
			c3.938-4.872,1.266-9.041-0.937-8.81c-4.401,0.469-0.747,3.419-2.715,5.854c-1.972,2.433-24.218,2.565-38.828-9.248
			c-4.868-3.938-17.039-13.78-12.12-19.864c4.921-6.087,17.098,3.754,21.964,7.69c14.606,11.813,19.14,33.593,17.177,36.028
			c-1.972,2.433-5.621-0.516-5.156,3.888C141.05,88.57,145.684,90.306,149.624,85.437z"/>
	</g>
</g>
</svg>
