<?xml version="1.0" encoding="utf-8"?>
<!-- Generator: Adobe Illustrator 14.0.0, SVG Export Plug-In . SVG Version: 6.00 Build 43363)  -->
<!DOCTYPE svg PUBLIC "-//W3C//DTD SVG 1.1 Tiny//EN" "http://www.w3.org/Graphics/SVG/1.1/DTD/svg11-tiny.dtd">
<svg version="1.1" baseProfile="tiny" id="Layer_1" xmlns="http://www.w3.org/2000/svg" xmlns:xlink="http://www.w3.org/1999/xlink"
	 x="0px" y="0px" width="54px" height="48px" viewBox="0 0 54 48" xml:space="preserve">
<path d="M45.521,0.785C41.092-1.05,32.783-0.251,27,9.573C21.216-0.251,12.908-1.05,8.478,0.785
	C3.172,2.981-2.937,10.872,2.748,24.596C10.11,42.369,25.132,48.12,27.029,47.998c2.127,0.009,16.931-5.798,24.224-23.402
	C56.936,10.872,50.827,2.981,45.521,0.785z M24.936,13.745c-5.068,12.272-2.99,23.274-0.731,29.325
	c-4.833-1.717-12.73-7.108-17.555-18.754C2.388,14.025,4.181,6.583,9.897,4.214C15.121,2.053,20.75,5.323,24.936,13.745
	L24.936,13.745z M26.996,40.146C25.12,35.35,23.951,27.714,27,18.7c0-0.002,0.001-0.004,0.002-0.007
	C30.059,27.721,28.875,35.352,26.996,40.146z M47.352,24.316c-4.822,11.642-12.726,17.043-17.56,18.763
	c2.261-6.052,4.342-17.058-0.729-29.334c4.186-8.422,9.815-11.692,15.039-9.531C49.818,6.584,51.613,14.025,47.352,24.316z"/>
</svg>
