<?xml version="1.0" encoding="utf-8"?>
<!-- Generator: Adobe Illustrator 14.0.0, SVG Export Plug-In . SVG Version: 6.00 Build 43363)  -->
<!DOCTYPE svg PUBLIC "-//W3C//DTD SVG 1.1 Tiny//EN" "http://www.w3.org/Graphics/SVG/1.1/DTD/svg11-tiny.dtd">
<svg version="1.1" baseProfile="tiny" id="Layer_1" xmlns="http://www.w3.org/2000/svg" xmlns:xlink="http://www.w3.org/1999/xlink"
	 x="0px" y="0px" width="20px" height="20px" viewBox="0 0 20 20" xml:space="preserve">
<path d="M20,3.797c-0.736,0.326-1.527,0.546-2.357,0.646c0.847-0.508,1.498-1.312,1.804-2.27c-0.792,0.47-1.671,0.812-2.605,0.996
	c-0.748-0.798-1.814-1.295-2.994-1.295c-2.266,0-4.104,1.837-4.104,4.103c0,0.321,0.036,0.635,0.106,0.935
	C6.439,6.74,3.416,5.106,1.393,2.625C1.039,3.23,0.837,3.935,0.837,4.687c0,1.423,0.724,2.679,1.825,3.415
	C1.989,8.081,1.356,7.896,0.804,7.589c0,0.017,0,0.034,0,0.052c0,1.988,1.414,3.646,3.292,4.023
	c-0.345,0.094-0.707,0.144-1.082,0.144c-0.264,0-0.521-0.025-0.771-0.073c0.522,1.63,2.037,2.816,3.832,2.85
	C4.67,15.685,2.901,16.34,0.979,16.34c-0.331,0-0.657-0.02-0.979-0.058c1.815,1.164,3.973,1.844,6.289,1.844
	c7.548,0,11.675-6.252,11.675-11.674c0-0.178-0.004-0.355-0.012-0.531C18.754,5.343,19.449,4.62,20,3.797z"/>
</svg>
