<?xml version="1.0" encoding="utf-8"?>
<!-- Generator: Adobe Illustrator 14.0.0, SVG Export Plug-In . SVG Version: 6.00 Build 43363)  -->
<!DOCTYPE svg PUBLIC "-//W3C//DTD SVG 1.1 Tiny//EN" "http://www.w3.org/Graphics/SVG/1.1/DTD/svg11-tiny.dtd">
<svg version="1.1" baseProfile="tiny" id="Layer_1" xmlns="http://www.w3.org/2000/svg" xmlns:xlink="http://www.w3.org/1999/xlink"
	 x="0px" y="0px" width="20px" height="20px" viewBox="0 0 20 20" xml:space="preserve">
<g>
	<path d="M18.52,0H1.476C0.662,0,0,0.646,0,1.441v17.115C0,19.354,0.662,20,1.476,20H18.52c0.815,0,1.48-0.646,1.48-1.443V1.441
		C20,0.646,19.335,0,18.52,0z"/>
	<path fill="#FFFFFF" d="M2.965,7.498h2.966v9.544H2.965V7.498z M4.449,2.754c0.948,0,1.719,0.771,1.719,1.719
		c0,0.95-0.771,1.72-1.719,1.72c-0.951,0-1.721-0.771-1.721-1.72C2.729,3.524,3.499,2.754,4.449,2.754"/>
	<path fill="#FFFFFF" d="M7.792,7.498h2.845v1.304h0.039c0.396-0.75,1.364-1.542,2.808-1.542c3.003,0,3.558,1.977,3.558,4.547v5.234
		h-2.964V12.4c0-1.106-0.021-2.53-1.542-2.53c-1.543,0-1.78,1.206-1.78,2.45v4.722H7.792L7.792,7.498L7.792,7.498z"/>
</g>
</svg>
