<?xml version="1.0" encoding="utf-8"?>
<!-- Generator: Adobe Illustrator 14.0.0, SVG Export Plug-In . SVG Version: 6.00 Build 43363)  -->
<!DOCTYPE svg PUBLIC "-//W3C//DTD SVG 1.1 Tiny//EN" "http://www.w3.org/Graphics/SVG/1.1/DTD/svg11-tiny.dtd">
<svg version="1.1" baseProfile="tiny" id="Layer_1" xmlns="http://www.w3.org/2000/svg" xmlns:xlink="http://www.w3.org/1999/xlink"
	 x="0px" y="0px" width="20px" height="20px" viewBox="0 0 20 20" xml:space="preserve">
<rect x="4.62" y="15.64" width="7.895" height="1.687"/>
<rect x="12.395" y="3.19" transform="matrix(0.171 0.9853 -0.9853 0.171 17.5207 -12.7582)" width="7.893" height="1.685"/>
<rect x="4.749" y="13.11" transform="matrix(0.9958 0.0917 -0.0917 0.9958 1.3156 -0.7384)" width="7.895" height="1.687"/>
<rect x="5.245" y="10.223" transform="matrix(0.9657 0.2596 -0.2596 0.9657 3.1873 -2.0066)" width="7.894" height="1.686"/>
<rect x="6.443" y="7.226" transform="matrix(0.8614 0.508 -0.508 0.8614 5.5395 -4.159)" width="7.893" height="1.685"/>
<rect x="9.017" y="4.538" transform="matrix(0.5634 0.8262 -0.8262 0.5634 10.1052 -8.361)" width="7.893" height="1.686"/>
<path d="M13.854,11.778v6.893H3.501v-6.893H2.152v8.215h0.014C2.166,20,2.56,20,2.56,20h12.63v-0.007
	c0.013,0,0.013-0.394,0.013-0.394v-7.821H13.854z"/>
</svg>
