<?xml version="1.0" encoding="utf-8"?>
<!-- Generator: Adobe Illustrator 14.0.0, SVG Export Plug-In . SVG Version: 6.00 Build 43363)  -->
<!DOCTYPE svg PUBLIC "-//W3C//DTD SVG 1.1 Tiny//EN" "http://www.w3.org/Graphics/SVG/1.1/DTD/svg11-tiny.dtd">
<svg version="1.1" baseProfile="tiny" id="Layer_1" xmlns="http://www.w3.org/2000/svg" xmlns:xlink="http://www.w3.org/1999/xlink"
	 x="0px" y="0px" width="36px" height="36px" viewBox="0 0 36 36" xml:space="preserve">
<path d="M36,6.835c-1.325,0.588-2.749,0.984-4.242,1.163c1.524-0.914,2.695-2.361,3.247-4.086c-1.427,0.847-3.008,1.461-4.69,1.792
	c-1.347-1.436-3.267-2.332-5.391-2.332c-4.079,0-7.386,3.307-7.386,7.386c0,0.578,0.065,1.143,0.191,1.683
	C11.591,12.133,6.148,9.192,2.506,4.724c-0.636,1.091-1,2.359-1,3.713c0,2.562,1.303,4.823,3.286,6.147
	c-1.211-0.038-2.35-0.37-3.346-0.924c0,0.031,0,0.062,0,0.094c0,3.578,2.546,6.562,5.925,7.241c-0.62,0.169-1.272,0.259-1.946,0.259
	c-0.476,0-0.938-0.046-1.39-0.132c0.94,2.935,3.667,5.069,6.899,5.129c-2.528,1.981-5.712,3.161-9.173,3.161
	c-0.596,0-1.184-0.034-1.762-0.103c3.269,2.096,7.151,3.318,11.322,3.318c13.585,0,21.014-11.254,21.014-21.014
	c0-0.32-0.007-0.64-0.021-0.956C33.758,9.617,35.009,8.316,36,6.835z"/>
</svg>
