<?xml version="1.0" encoding="utf-8"?>
<!-- Generator: Adobe Illustrator 14.0.0, SVG Export Plug-In . SVG Version: 6.00 Build 43363)  -->
<!DOCTYPE svg PUBLIC "-//W3C//DTD SVG 1.1 Tiny//EN" "http://www.w3.org/Graphics/SVG/1.1/DTD/svg11-tiny.dtd">
<svg version="1.1" baseProfile="tiny" id="Layer_1" xmlns="http://www.w3.org/2000/svg" xmlns:xlink="http://www.w3.org/1999/xlink"
	 x="0px" y="0px" width="20px" height="20px" viewBox="0 0 20 20" xml:space="preserve">
<path id="path19359" d="M3.04,3.95c-0.173,0-0.32,0.061-0.394,0.181C2.57,4.254,2.582,4.412,2.662,4.572l1.951,3.377
	c0.003,0.006,0.003,0.011,0,0.017l-3.065,5.407c-0.08,0.16-0.076,0.32,0,0.443c0.074,0.119,0.204,0.197,0.377,0.197H4.81
	c0.431,0,0.639-0.291,0.787-0.557c0,0,2.997-5.302,3.113-5.508C8.698,7.93,6.727,4.49,6.727,4.49c-0.143-0.256-0.36-0.54-0.803-0.54
	H3.04L3.04,3.95z"/>
<path id="path19375" d="M15.157,0c-0.431,0-0.617,0.271-0.772,0.55c0,0-6.214,11.021-6.419,11.383
	c0.011,0.019,4.099,7.519,4.099,7.519C12.208,19.707,12.429,20,12.87,20h2.882c0.173,0,0.31-0.064,0.383-0.184
	c0.076-0.124,0.074-0.286-0.006-0.445l-4.066-7.431c-0.005-0.006-0.005-0.013,0-0.019L18.449,0.63
	c0.081-0.159,0.082-0.321,0.006-0.445C18.382,0.065,18.245,0,18.071,0H15.157z"/>
</svg>
