<?xml version="1.0" encoding="utf-8"?>
<!-- Generator: Adobe Illustrator 14.0.0, SVG Export Plug-In . SVG Version: 6.00 Build 43363)  -->
<!DOCTYPE svg PUBLIC "-//W3C//DTD SVG 1.1 Tiny//EN" "http://www.w3.org/Graphics/SVG/1.1/DTD/svg11-tiny.dtd">
<svg version="1.1" baseProfile="tiny" id="Layer_1" xmlns="http://www.w3.org/2000/svg" xmlns:xlink="http://www.w3.org/1999/xlink"
	 x="0px" y="0px" width="36px" height="36px" viewBox="0 0 36 36" xml:space="preserve">
<path id="path19359" d="M5.471,7.11c-0.312,0-0.575,0.109-0.708,0.324C4.626,7.656,4.647,7.941,4.792,8.23l3.511,6.077
	c0.006,0.012,0.006,0.02,0,0.03l-5.517,9.734c-0.144,0.287-0.137,0.575,0,0.797c0.133,0.214,0.366,0.354,0.679,0.354h5.192
	c0.776,0,1.15-0.523,1.416-1.002c0,0,5.395-9.542,5.604-9.913c-0.021-0.034-3.569-6.225-3.569-6.225
	c-0.258-0.46-0.648-0.973-1.445-0.973H5.471z"/>
<path id="path19375" d="M27.283,0c-0.775,0-1.111,0.488-1.39,0.989c0,0-11.186,19.837-11.554,20.487
	c0.019,0.035,7.377,13.535,7.377,13.535c0.258,0.46,0.655,0.988,1.45,0.988h5.187c0.312,0,0.557-0.117,0.689-0.331
	c0.138-0.222,0.135-0.515-0.011-0.802l-7.319-13.374c-0.008-0.011-0.008-0.023,0-0.034L33.208,1.133
	c0.145-0.286,0.147-0.579,0.011-0.801C33.087,0.118,32.841,0,32.528,0H27.283z"/>
</svg>
