<svg xmlns="http://www.w3.org/2000/svg" viewBox="0 0 60 60">
  <g fill="none" transform="translate(0 5)">
    <path fill="#FCB400" d="M26.8020305,0.852791878 L4.62944162,10.0203046 C3.38071066,10.5380711 3.41116751,12.2741117 4.65989848,12.7918782 L26.9543147,21.6243655 C28.9035533,22.4162437 31.0964467,22.4162437 33.0456853,21.6243655 L55.3401015,12.7918782 C56.5888325,12.3045685 56.5888325,10.5380711 55.3705584,10.0203046 L33.1370558,0.852791878 C31.1269036,6.9388939e-16 28.8426396,6.9388939e-16 26.8020305,0.852791878"/>
    <path fill="#18BFFF" d="M31.9492386,26.4670051 L31.9492386,48.5482234 C31.9492386,49.5837563 33.0152284,50.3147208 33.9898477,49.9187817 L58.8426396,40.2639594 C59.4213198,40.0507614 59.786802,39.5025381 59.786802,38.893401 L59.786802,16.8121827 C59.786802,15.7766497 58.7208122,15.0456853 57.7461929,15.4416244 L32.893401,25.0659898 C32.3147208,25.3096447 31.9492386,25.857868 31.9492386,26.4670051"/>
    <path fill="#F82B60" d="M26.1624365,27.5939086 L18.7918782,31.1573604 L18.0304569,31.5228426 L2.46700508,38.9847716 C1.49238579,39.4720812 0.21319797,38.7411168 0.21319797,37.6446701 L0.21319797,16.9035533 C0.21319797,16.5076142 0.426395939,16.1725888 0.700507614,15.8984772 C0.822335025,15.7766497 0.944162437,15.6852792 1.06598985,15.6243655 C1.43147208,15.4111675 1.97969543,15.3502538 2.40609137,15.5329949 L26.0101523,24.8832487 C27.2284264,25.3401015 27.319797,27.0456853 26.1624365,27.5939086"/>
    <path fill="#BA1E45" d="M26.1624365,27.5939086 L18.7918782,31.1573604 L0.700507614,15.928934 C0.822335025,15.8071066 0.944162437,15.715736 1.06598985,15.6548223 C1.43147208,15.4416244 1.97969543,15.3807107 2.40609137,15.5634518 L26.0101523,24.9137056 C27.2284264,25.3401015 27.319797,27.0456853 26.1624365,27.5939086"/>
  </g>
</svg>
