<svg xmlns="http://www.w3.org/2000/svg" viewBox="0 0 48 48">
  <g fill="none" transform="translate(6.12 4.196)">
    <path fill="#FFD75F" d="M11.6138564,26.4781871 L11.6138564,26.4781871 C9.69871219,24.5454727 8.5039433,21.9099531 8.5039433,18.9757412 C8.5039433,16.0415294 9.69871219,13.4060098 11.6138564,11.4732954 L11.6138564,11.4732954 C13.2478786,9.83927324 13.2478786,7.20375362 11.6138564,5.58730159 C9.97983428,3.95327942 7.34431467,3.95327942 5.7102925,5.58730159 C2.284117,9.01347709 0.158131177,13.7398423 0.158131177,18.9757412 C0.158131177,24.2116402 2.284117,28.9380054 5.7102925,32.3641809 C7.34431467,33.9982031 9.97983428,33.9982031 11.6138564,32.3641809 C13.2478786,30.7477289 13.2478786,28.1122092 11.6138564,26.4781871 C11.6138564,26.4781871 11.6138564,26.4781871 11.6138564,26.4781871 Z"/>
    <path fill="#4FB5E1" d="M11.6138564,11.4908655 L11.6138564,11.4908655 C13.5465708,9.57572127 16.1996606,8.38095238 19.1163023,8.38095238 C22.0505141,8.38095238 24.7036039,9.57572127 26.6187481,11.4908655 L26.6187481,11.4908655 C28.2527703,13.1248877 30.8882899,13.1248877 32.5223121,11.4908655 C34.1563342,9.85684337 34.1563342,7.22132375 32.5223121,5.60487172 C29.0961366,2.17869622 24.3522013,0.0527103923 19.1163023,0.0527103923 C13.8804033,0.0527103923 9.136468,2.17869622 5.7102925,5.60487172 C4.07627034,7.23889388 4.07627034,9.8744135 5.7102925,11.4908655 C7.34431467,13.1248877 9.99740441,13.1248877 11.6138564,11.4908655 C11.6138564,11.4908655 11.6138564,11.4908655 11.6138564,11.4908655 Z"/>
    <path fill="#F05751" d="M26.6363183,26.4781871 L26.6363183,26.4781871 C24.7036039,28.3933313 22.0505141,29.5881002 19.1338724,29.5881002 C16.1996606,29.5881002 13.5465708,28.3933313 11.6314266,26.4781871 L11.6314266,26.4781871 C9.99740441,24.8441649 7.3618848,24.8441649 5.72786263,26.4781871 C4.09384047,28.1122092 4.09384047,30.7477289 5.72786263,32.3641809 C9.15403814,35.7903564 13.8979734,37.9163422 19.1338724,37.9163422 C24.3697714,37.9163422 29.1137067,35.7903564 32.5398822,32.3641809 C34.1739044,30.7301587 34.1739044,28.0946391 32.5398822,26.4781871 C30.90586,24.8617351 28.2703404,24.8617351 26.6363183,26.4781871 C26.6363183,26.4781871 26.6363183,26.4781871 26.6363183,26.4781871 Z"/>
    <path fill="#0681B6" d="M11.6138564,11.4908655 C9.97983428,13.1248877 7.34431467,13.1248877 5.7102925,11.4908655 C4.07627034,9.85684337 4.07627034,7.22132375 5.7102925,5.60487172 C7.34431467,3.97084956 9.97983428,3.97084956 11.6138564,5.60487172 C13.2478786,7.22132375 13.2478786,9.85684337 11.6138564,11.4908655 Z"/>
    <path fill="#CD4739" d="M11.6138564,32.381751 C9.97983428,34.0157732 7.34431467,34.0157732 5.7102925,32.381751 C4.07627034,30.765299 4.07627034,28.1122092 5.7102925,26.4957572 C7.34431467,24.8617351 9.97983428,24.8617351 11.6138564,26.4957572 C13.2478786,28.1122092 13.2478786,30.7477289 11.6138564,32.381751 Z"/>
  </g>
</svg>
