<svg xmlns="http://www.w3.org/2000/svg" viewBox="0 0 60 60">
  <path fill="#FB6970" d="M28.855814,44.0637209 C39.2406977,44.0637209 47.2674419,36.1723256 47.2674419,26.4383721 C47.2674419,17.3187209 39.7266279,11.7502326 34.7319767,11.7502326 C27.7744186,11.7502326 22.1982558,16.6632558 21.407093,23.9553488 C21.2612791,25.3004651 20.1945349,26.4286047 18.8413953,26.4184884 C16.600814,26.4024419 13.3486047,26.3836047 11.2862791,26.3905814 C10.395,26.3933721 9.65755814,25.6702326 9.70151163,24.7796512 C10.0119767,18.4576744 12.1133721,12.5459302 16.120814,8.00511628 C20.5730233,2.96093023 27.0561628,0 34.7319767,0 C47.6281395,0 59.8025581,11.785814 59.8025581,26.4383721 C59.8025581,42.662093 46.437907,55.8139535 29.1303488,55.8139535 C16.787093,55.8139535 4.3555814,47.7006977 0.015,36.3575581 C-2.72776039e-05,36.3155037 -0.00407308169,36.2700156 0.00453488372,36.2260465 C0.0620930233,35.8904651 0.176860465,35.5838372 0.289883721,35.2817442 C0.454186047,34.842907 0.614651163,34.4138372 0.59127907,33.919186 L0.51627907,32.3393023 C0.479680166,31.559035 0.917827245,30.8338878 1.6255814,30.5033721 L2.2527907,30.2096512 C2.96759605,29.8754361 3.47619397,29.2156369 3.61744186,28.4393023 C3.82939787,27.2793408 4.84071689,26.4370399 6.01988372,26.4383721 C7.86244186,26.4383721 9.46465116,27.6645349 10.062907,29.4076744 C12.9606977,37.8537209 17.5667442,44.0637209 28.855814,44.0637209 Z" transform="translate(0 2)"/>
</svg>
