<svg xmlns="http://www.w3.org/2000/svg" viewBox="0 0 60 60">
  <g fill="#0080FF" fill-rule="evenodd">
    <path d="M29.89836,60 L29.89836,48.4068 C42.16956,48.4068 51.69492,36.23724 46.983,23.322 C45.25428,18.5424 41.42376,14.71188 36.64404,12.98304 C23.7288,8.3052 11.55924,17.7966 11.55924,30.0678 L0,30.0678 C0,10.50852 18.91524,-4.74576 39.42372,1.66104 C48.37284,4.47456 55.52532,11.5932 58.30512,20.54232 C64.71192,41.08476 49.49148,60 29.89836,60"/>
    <path d="M18.4068,48.44064 L29.9322,48.44064 L29.9322,36.91524 L18.4068,36.91524 L18.4068,48.44064 Z M9.52548,57.32208 L18.40668,57.32208 L18.40668,48.44064 L9.5256,48.44064 L9.52548,57.32208 Z M2.10168,48.44064 L9.5256,48.44064 L9.5256,41.01696 L2.10168,41.01696 L2.10168,48.44064 Z"/>
  </g>
</svg>
