<svg xmlns="http://www.w3.org/2000/svg" viewBox="0 0 60 60">
  <g fill="none" transform="translate(10)">
    <path fill="#1ABCFE" d="M20,30 C20,24.4768421 24.4768421,20 30,20 C35.5231579,20 40,24.4768421 40,30 C40,35.5231579 35.5231579,40 30,40 C24.4768421,40 20,35.5231579 20,30 Z"/>
    <path fill="#0ACF83" d="M0,50 C0,44.4768421 4.47684211,40 10,40 L20,40 L20,50 C20,55.5231579 15.5231579,60 10,60 C4.47684211,60 0,55.5231579 0,50 Z"/>
    <path fill="#FF7262" d="M20,0 L20,20 L30,20 C35.5231579,20 40,15.5231579 40,10 C40,4.47684211 35.5231579,0 30,0 L20,0 Z"/>
    <path fill="#F24E1E" d="M0,10 C0,15.5231579 4.47684211,20 10,20 L20,20 L20,0 L10,0 C4.47684211,0 0,4.47684211 0,10 Z"/>
    <path fill="#A259FF" d="M0,30 C0,35.5231579 4.47684211,40 10,40 L20,40 L20,20 L10,20 C4.47684211,20 0,24.4768421 0,30 Z"/>
  </g>
</svg>
