<svg xmlns="http://www.w3.org/2000/svg" viewBox="0 0 60 60">
  <g fill="none">
    <circle cx="30" cy="30" r="30" fill="#639"/>
    <path fill="#FFF" d="M13.2857143,46.7142857 C8.78571429,42.2142857 6.42857143,36.2142857 6.42857143,30.4285714 L29.7857143,53.5714286 C23.7857143,53.3571429 17.7857143,51.2142857 13.2857143,46.7142857 Z M35.1428571,52.9285714 L7.07142857,24.8571429 C9.42857143,14.3571429 18.8571429,6.42857143 30,6.42857143 C37.9285714,6.42857143 44.7857143,10.2857143 49.0714286,16.0714286 L45.8571429,18.8571429 C42.2142857,13.9285714 36.4285714,10.7142857 30,10.7142857 C21.6428571,10.7142857 14.5714286,16.0714286 11.7857143,23.5714286 L36.4285714,48.2142857 C42.6428571,46.0714286 47.3571429,40.7142857 48.8571429,34.2857143 L38.5714286,34.2857143 L38.5714286,30 L53.5714286,30 C53.5714286,41.1428571 45.6428571,50.5714286 35.1428571,52.9285714 Z"/>
  </g>
</svg>
