<svg xmlns="http://www.w3.org/2000/svg" xmlns:xlink="http://www.w3.org/1999/xlink" viewBox="0 0 60 60">
  <defs>
    <path id="gumroad-a" d="M7.13513514,7.91351351 L47.2216216,7.91351351 C48.0972973,9.6 49.8810811,10.7675676 51.9243243,10.7675676 C54.8432432,10.7675676 57.2108108,8.4 57.2108108,5.48108108 C57.2108108,2.56216216 54.8432432,0.194594595 51.8918919,0.194594595 C49.6864865,0.194594595 47.772973,1.55675676 46.9945946,3.5027027 L7.13513514,3.5027027 C3.27567568,3.5027027 0.227027027,6.45405405 0.227027027,10.1837838 L0.227027027,52.8648649 C0.227027027,56.6594595 3.40540541,59.9027027 7.13513514,59.9027027 L49.7837838,59.9027027 C53.5459459,59.9027027 56.5945946,56.7567568 56.5945946,52.8648649 L56.5945946,27.5675676 C56.5945946,23.772973 53.5459459,20.6594595 49.7837838,20.6594595 L24.4864865,20.6594595 C20.627027,20.6594595 17.3513514,23.8378378 17.3513514,27.5675676 L17.3513514,35.5135135 C17.3513514,39.2108108 20.5621622,42.1945946 24.4864865,42.1945946 L33.3081081,42.1945946 C34.0864865,44.1405405 36,45.5027027 38.2054054,45.5027027 C41.1243243,45.5027027 43.4918919,43.1351351 43.4918919,40.2162162 C43.4918919,37.2972973 41.1243243,34.9297297 38.2054054,34.9297297 C36.1621622,34.9297297 34.3783784,36.0972973 33.5027027,37.7837838 L24.4864865,37.7837838 C23.1891892,37.7837838 21.7945946,36.9081081 21.7945946,35.5135135 L21.7945946,27.5351351 C21.7945946,26.2378378 23.0918919,25.0378378 24.4864865,25.0378378 L49.7837838,25.0378378 C51.1135135,25.0378378 52.1837838,26.1405405 52.1837838,27.5351351 L52.1837838,52.8324324 C52.1837838,54.227027 51.0810811,55.427027 49.7837838,55.427027 L7.13513514,55.427027 C5.80540541,55.427027 4.63783784,54.1945946 4.63783784,52.8324324 L4.63783784,10.1837838 C4.63783784,8.91891892 5.70810811,7.91351351 7.13513514,7.91351351 Z M51.8918919,2.95135135 C53.2864865,2.95135135 54.4216216,4.08648649 54.4216216,5.48108108 C54.4216216,6.87567568 53.2864865,8.01081081 51.8918919,8.01081081 C50.4972973,8.01081081 49.3621622,6.87567568 49.3621622,5.48108108 C49.3621622,4.08648649 50.4972973,2.95135135 51.8918919,2.95135135 Z M38.2378378,37.6864865 C39.6324324,37.6864865 40.7675676,38.8216216 40.7675676,40.2162162 C40.7675676,41.6108108 39.6324324,42.7459459 38.2378378,42.7459459 C36.8432432,42.7459459 35.7081081,41.6108108 35.7081081,40.2162162 C35.7081081,38.7891892 36.8432432,37.6864865 38.2378378,37.6864865 Z"/>
    <path id="gumroad-c" d="M7.13513514,7.91351351 L47.2216216,7.91351351 C48.0972973,9.6 49.8810811,10.7675676 51.9243243,10.7675676 C54.8432432,10.7675676 57.2108108,8.4 57.2108108,5.48108108 C57.2108108,2.56216216 54.8432432,0.194594595 51.8918919,0.194594595 C49.6864865,0.194594595 47.772973,1.55675676 46.9945946,3.5027027 L7.13513514,3.5027027 C3.27567568,3.5027027 0.227027027,6.45405405 0.227027027,10.1837838 L0.227027027,52.8648649 C0.227027027,56.6594595 3.40540541,59.9027027 7.13513514,59.9027027 L49.7837838,59.9027027 C53.5459459,59.9027027 56.5945946,56.7567568 56.5945946,52.8648649 L56.5945946,27.5675676 C56.5945946,23.772973 53.5459459,20.6594595 49.7837838,20.6594595 L24.4864865,20.6594595 C20.627027,20.6594595 17.3513514,23.8378378 17.3513514,27.5675676 L17.3513514,35.5135135 C17.3513514,39.2108108 20.5621622,42.1945946 24.4864865,42.1945946 L33.3081081,42.1945946 C34.0864865,44.1405405 36,45.5027027 38.2054054,45.5027027 C41.1243243,45.5027027 43.4918919,43.1351351 43.4918919,40.2162162 C43.4918919,37.2972973 41.1243243,34.9297297 38.2054054,34.9297297 C36.1621622,34.9297297 34.3783784,36.0972973 33.5027027,37.7837838 L24.4864865,37.7837838 C23.1891892,37.7837838 21.7945946,36.9081081 21.7945946,35.5135135 L21.7945946,27.5351351 C21.7945946,26.2378378 23.0918919,25.0378378 24.4864865,25.0378378 L49.7837838,25.0378378 C51.1135135,25.0378378 52.1837838,26.1405405 52.1837838,27.5351351 L52.1837838,52.8324324 C52.1837838,54.227027 51.0810811,55.427027 49.7837838,55.427027 L7.13513514,55.427027 C5.80540541,55.427027 4.63783784,54.1945946 4.63783784,52.8324324 L4.63783784,10.1837838 C4.63783784,8.91891892 5.70810811,7.91351351 7.13513514,7.91351351 Z M51.8918919,2.95135135 C53.2864865,2.95135135 54.4216216,4.08648649 54.4216216,5.48108108 C54.4216216,6.87567568 53.2864865,8.01081081 51.8918919,8.01081081 C50.4972973,8.01081081 49.3621622,6.87567568 49.3621622,5.48108108 C49.3621622,4.08648649 50.4972973,2.95135135 51.8918919,2.95135135 Z M38.2378378,37.6864865 C39.6324324,37.6864865 40.7675676,38.8216216 40.7675676,40.2162162 C40.7675676,41.6108108 39.6324324,42.7459459 38.2378378,42.7459459 C36.8432432,42.7459459 35.7081081,41.6108108 35.7081081,40.2162162 C35.7081081,38.7891892 36.8432432,37.6864865 38.2378378,37.6864865 Z"/>
    <path id="gumroad-e" d="M7.13513514,7.91351351 L47.2216216,7.91351351 C48.0972973,9.6 49.8810811,10.7675676 51.9243243,10.7675676 C54.8432432,10.7675676 57.2108108,8.4 57.2108108,5.48108108 C57.2108108,2.56216216 54.8432432,0.194594595 51.8918919,0.194594595 C49.6864865,0.194594595 47.772973,1.55675676 46.9945946,3.5027027 L7.13513514,3.5027027 C3.27567568,3.5027027 0.227027027,6.45405405 0.227027027,10.1837838 L0.227027027,52.8648649 C0.227027027,56.6594595 3.40540541,59.9027027 7.13513514,59.9027027 L49.7837838,59.9027027 C53.5459459,59.9027027 56.5945946,56.7567568 56.5945946,52.8648649 L56.5945946,27.5675676 C56.5945946,23.772973 53.5459459,20.6594595 49.7837838,20.6594595 L24.4864865,20.6594595 C20.627027,20.6594595 17.3513514,23.8378378 17.3513514,27.5675676 L17.3513514,35.5135135 C17.3513514,39.2108108 20.5621622,42.1945946 24.4864865,42.1945946 L33.3081081,42.1945946 C34.0864865,44.1405405 36,45.5027027 38.2054054,45.5027027 C41.1243243,45.5027027 43.4918919,43.1351351 43.4918919,40.2162162 C43.4918919,37.2972973 41.1243243,34.9297297 38.2054054,34.9297297 C36.1621622,34.9297297 34.3783784,36.0972973 33.5027027,37.7837838 L24.4864865,37.7837838 C23.1891892,37.7837838 21.7945946,36.9081081 21.7945946,35.5135135 L21.7945946,27.5351351 C21.7945946,26.2378378 23.0918919,25.0378378 24.4864865,25.0378378 L49.7837838,25.0378378 C51.1135135,25.0378378 52.1837838,26.1405405 52.1837838,27.5351351 L52.1837838,52.8324324 C52.1837838,54.227027 51.0810811,55.427027 49.7837838,55.427027 L7.13513514,55.427027 C5.80540541,55.427027 4.63783784,54.1945946 4.63783784,52.8324324 L4.63783784,10.1837838 C4.63783784,8.91891892 5.70810811,7.91351351 7.13513514,7.91351351 Z M51.8918919,2.95135135 C53.2864865,2.95135135 54.4216216,4.08648649 54.4216216,5.48108108 C54.4216216,6.87567568 53.2864865,8.01081081 51.8918919,8.01081081 C50.4972973,8.01081081 49.3621622,6.87567568 49.3621622,5.48108108 C49.3621622,4.08648649 50.4972973,2.95135135 51.8918919,2.95135135 Z M38.2378378,37.6864865 C39.6324324,37.6864865 40.7675676,38.8216216 40.7675676,40.2162162 C40.7675676,41.6108108 39.6324324,42.7459459 38.2378378,42.7459459 C36.8432432,42.7459459 35.7081081,41.6108108 35.7081081,40.2162162 C35.7081081,38.7891892 36.8432432,37.6864865 38.2378378,37.6864865 Z"/>
    <path id="gumroad-g" d="M7.13513514,7.91351351 L47.2216216,7.91351351 C48.0972973,9.6 49.8810811,10.7675676 51.9243243,10.7675676 C54.8432432,10.7675676 57.2108108,8.4 57.2108108,5.48108108 C57.2108108,2.56216216 54.8432432,0.194594595 51.8918919,0.194594595 C49.6864865,0.194594595 47.772973,1.55675676 46.9945946,3.5027027 L7.13513514,3.5027027 C3.27567568,3.5027027 0.227027027,6.45405405 0.227027027,10.1837838 L0.227027027,52.8648649 C0.227027027,56.6594595 3.40540541,59.9027027 7.13513514,59.9027027 L49.7837838,59.9027027 C53.5459459,59.9027027 56.5945946,56.7567568 56.5945946,52.8648649 L56.5945946,27.5675676 C56.5945946,23.772973 53.5459459,20.6594595 49.7837838,20.6594595 L24.4864865,20.6594595 C20.627027,20.6594595 17.3513514,23.8378378 17.3513514,27.5675676 L17.3513514,35.5135135 C17.3513514,39.2108108 20.5621622,42.1945946 24.4864865,42.1945946 L33.3081081,42.1945946 C34.0864865,44.1405405 36,45.5027027 38.2054054,45.5027027 C41.1243243,45.5027027 43.4918919,43.1351351 43.4918919,40.2162162 C43.4918919,37.2972973 41.1243243,34.9297297 38.2054054,34.9297297 C36.1621622,34.9297297 34.3783784,36.0972973 33.5027027,37.7837838 L24.4864865,37.7837838 C23.1891892,37.7837838 21.7945946,36.9081081 21.7945946,35.5135135 L21.7945946,27.5351351 C21.7945946,26.2378378 23.0918919,25.0378378 24.4864865,25.0378378 L49.7837838,25.0378378 C51.1135135,25.0378378 52.1837838,26.1405405 52.1837838,27.5351351 L52.1837838,52.8324324 C52.1837838,54.227027 51.0810811,55.427027 49.7837838,55.427027 L7.13513514,55.427027 C5.80540541,55.427027 4.63783784,54.1945946 4.63783784,52.8324324 L4.63783784,10.1837838 C4.63783784,8.91891892 5.70810811,7.91351351 7.13513514,7.91351351 Z M51.8918919,2.95135135 C53.2864865,2.95135135 54.4216216,4.08648649 54.4216216,5.48108108 C54.4216216,6.87567568 53.2864865,8.01081081 51.8918919,8.01081081 C50.4972973,8.01081081 49.3621622,6.87567568 49.3621622,5.48108108 C49.3621622,4.08648649 50.4972973,2.95135135 51.8918919,2.95135135 Z M38.2378378,37.6864865 C39.6324324,37.6864865 40.7675676,38.8216216 40.7675676,40.2162162 C40.7675676,41.6108108 39.6324324,42.7459459 38.2378378,42.7459459 C36.8432432,42.7459459 35.7081081,41.6108108 35.7081081,40.2162162 C35.7081081,38.7891892 36.8432432,37.6864865 38.2378378,37.6864865 Z"/>
    <path id="gumroad-i" d="M7.13513514,7.91351351 L47.2216216,7.91351351 C48.0972973,9.6 49.8810811,10.7675676 51.9243243,10.7675676 C54.8432432,10.7675676 57.2108108,8.4 57.2108108,5.48108108 C57.2108108,2.56216216 54.8432432,0.194594595 51.8918919,0.194594595 C49.6864865,0.194594595 47.772973,1.55675676 46.9945946,3.5027027 L7.13513514,3.5027027 C3.27567568,3.5027027 0.227027027,6.45405405 0.227027027,10.1837838 L0.227027027,52.8648649 C0.227027027,56.6594595 3.40540541,59.9027027 7.13513514,59.9027027 L49.7837838,59.9027027 C53.5459459,59.9027027 56.5945946,56.7567568 56.5945946,52.8648649 L56.5945946,27.5675676 C56.5945946,23.772973 53.5459459,20.6594595 49.7837838,20.6594595 L24.4864865,20.6594595 C20.627027,20.6594595 17.3513514,23.8378378 17.3513514,27.5675676 L17.3513514,35.5135135 C17.3513514,39.2108108 20.5621622,42.1945946 24.4864865,42.1945946 L33.3081081,42.1945946 C34.0864865,44.1405405 36,45.5027027 38.2054054,45.5027027 C41.1243243,45.5027027 43.4918919,43.1351351 43.4918919,40.2162162 C43.4918919,37.2972973 41.1243243,34.9297297 38.2054054,34.9297297 C36.1621622,34.9297297 34.3783784,36.0972973 33.5027027,37.7837838 L24.4864865,37.7837838 C23.1891892,37.7837838 21.7945946,36.9081081 21.7945946,35.5135135 L21.7945946,27.5351351 C21.7945946,26.2378378 23.0918919,25.0378378 24.4864865,25.0378378 L49.7837838,25.0378378 C51.1135135,25.0378378 52.1837838,26.1405405 52.1837838,27.5351351 L52.1837838,52.8324324 C52.1837838,54.227027 51.0810811,55.427027 49.7837838,55.427027 L7.13513514,55.427027 C5.80540541,55.427027 4.63783784,54.1945946 4.63783784,52.8324324 L4.63783784,10.1837838 C4.63783784,8.91891892 5.70810811,7.91351351 7.13513514,7.91351351 Z M51.8918919,2.95135135 C53.2864865,2.95135135 54.4216216,4.08648649 54.4216216,5.48108108 C54.4216216,6.87567568 53.2864865,8.01081081 51.8918919,8.01081081 C50.4972973,8.01081081 49.3621622,6.87567568 49.3621622,5.48108108 C49.3621622,4.08648649 50.4972973,2.95135135 51.8918919,2.95135135 Z M38.2378378,37.6864865 C39.6324324,37.6864865 40.7675676,38.8216216 40.7675676,40.2162162 C40.7675676,41.6108108 39.6324324,42.7459459 38.2378378,42.7459459 C36.8432432,42.7459459 35.7081081,41.6108108 35.7081081,40.2162162 C35.7081081,38.7891892 36.8432432,37.6864865 38.2378378,37.6864865 Z"/>
    <path id="gumroad-k" d="M7.13513514,7.91351351 L47.2216216,7.91351351 C48.0972973,9.6 49.8810811,10.7675676 51.9243243,10.7675676 C54.8432432,10.7675676 57.2108108,8.4 57.2108108,5.48108108 C57.2108108,2.56216216 54.8432432,0.194594595 51.8918919,0.194594595 C49.6864865,0.194594595 47.772973,1.55675676 46.9945946,3.5027027 L7.13513514,3.5027027 C3.27567568,3.5027027 0.227027027,6.45405405 0.227027027,10.1837838 L0.227027027,52.8648649 C0.227027027,56.6594595 3.40540541,59.9027027 7.13513514,59.9027027 L49.7837838,59.9027027 C53.5459459,59.9027027 56.5945946,56.7567568 56.5945946,52.8648649 L56.5945946,27.5675676 C56.5945946,23.772973 53.5459459,20.6594595 49.7837838,20.6594595 L24.4864865,20.6594595 C20.627027,20.6594595 17.3513514,23.8378378 17.3513514,27.5675676 L17.3513514,35.5135135 C17.3513514,39.2108108 20.5621622,42.1945946 24.4864865,42.1945946 L33.3081081,42.1945946 C34.0864865,44.1405405 36,45.5027027 38.2054054,45.5027027 C41.1243243,45.5027027 43.4918919,43.1351351 43.4918919,40.2162162 C43.4918919,37.2972973 41.1243243,34.9297297 38.2054054,34.9297297 C36.1621622,34.9297297 34.3783784,36.0972973 33.5027027,37.7837838 L24.4864865,37.7837838 C23.1891892,37.7837838 21.7945946,36.9081081 21.7945946,35.5135135 L21.7945946,27.5351351 C21.7945946,26.2378378 23.0918919,25.0378378 24.4864865,25.0378378 L49.7837838,25.0378378 C51.1135135,25.0378378 52.1837838,26.1405405 52.1837838,27.5351351 L52.1837838,52.8324324 C52.1837838,54.227027 51.0810811,55.427027 49.7837838,55.427027 L7.13513514,55.427027 C5.80540541,55.427027 4.63783784,54.1945946 4.63783784,52.8324324 L4.63783784,10.1837838 C4.63783784,8.91891892 5.70810811,7.91351351 7.13513514,7.91351351 Z M51.8918919,2.95135135 C53.2864865,2.95135135 54.4216216,4.08648649 54.4216216,5.48108108 C54.4216216,6.87567568 53.2864865,8.01081081 51.8918919,8.01081081 C50.4972973,8.01081081 49.3621622,6.87567568 49.3621622,5.48108108 C49.3621622,4.08648649 50.4972973,2.95135135 51.8918919,2.95135135 Z M38.2378378,37.6864865 C39.6324324,37.6864865 40.7675676,38.8216216 40.7675676,40.2162162 C40.7675676,41.6108108 39.6324324,42.7459459 38.2378378,42.7459459 C36.8432432,42.7459459 35.7081081,41.6108108 35.7081081,40.2162162 C35.7081081,38.7891892 36.8432432,37.6864865 38.2378378,37.6864865 Z"/>
    <path id="gumroad-m" d="M7.13513514,7.91351351 L47.2216216,7.91351351 C48.0972973,9.6 49.8810811,10.7675676 51.9243243,10.7675676 C54.8432432,10.7675676 57.2108108,8.4 57.2108108,5.48108108 C57.2108108,2.56216216 54.8432432,0.194594595 51.8918919,0.194594595 C49.6864865,0.194594595 47.772973,1.55675676 46.9945946,3.5027027 L7.13513514,3.5027027 C3.27567568,3.5027027 0.227027027,6.45405405 0.227027027,10.1837838 L0.227027027,52.8648649 C0.227027027,56.6594595 3.40540541,59.9027027 7.13513514,59.9027027 L49.7837838,59.9027027 C53.5459459,59.9027027 56.5945946,56.7567568 56.5945946,52.8648649 L56.5945946,27.5675676 C56.5945946,23.772973 53.5459459,20.6594595 49.7837838,20.6594595 L24.4864865,20.6594595 C20.627027,20.6594595 17.3513514,23.8378378 17.3513514,27.5675676 L17.3513514,35.5135135 C17.3513514,39.2108108 20.5621622,42.1945946 24.4864865,42.1945946 L33.3081081,42.1945946 C34.0864865,44.1405405 36,45.5027027 38.2054054,45.5027027 C41.1243243,45.5027027 43.4918919,43.1351351 43.4918919,40.2162162 C43.4918919,37.2972973 41.1243243,34.9297297 38.2054054,34.9297297 C36.1621622,34.9297297 34.3783784,36.0972973 33.5027027,37.7837838 L24.4864865,37.7837838 C23.1891892,37.7837838 21.7945946,36.9081081 21.7945946,35.5135135 L21.7945946,27.5351351 C21.7945946,26.2378378 23.0918919,25.0378378 24.4864865,25.0378378 L49.7837838,25.0378378 C51.1135135,25.0378378 52.1837838,26.1405405 52.1837838,27.5351351 L52.1837838,52.8324324 C52.1837838,54.227027 51.0810811,55.427027 49.7837838,55.427027 L7.13513514,55.427027 C5.80540541,55.427027 4.63783784,54.1945946 4.63783784,52.8324324 L4.63783784,10.1837838 C4.63783784,8.91891892 5.70810811,7.91351351 7.13513514,7.91351351 Z M51.8918919,2.95135135 C53.2864865,2.95135135 54.4216216,4.08648649 54.4216216,5.48108108 C54.4216216,6.87567568 53.2864865,8.01081081 51.8918919,8.01081081 C50.4972973,8.01081081 49.3621622,6.87567568 49.3621622,5.48108108 C49.3621622,4.08648649 50.4972973,2.95135135 51.8918919,2.95135135 Z M38.2378378,37.6864865 C39.6324324,37.6864865 40.7675676,38.8216216 40.7675676,40.2162162 C40.7675676,41.6108108 39.6324324,42.7459459 38.2378378,42.7459459 C36.8432432,42.7459459 35.7081081,41.6108108 35.7081081,40.2162162 C35.7081081,38.7891892 36.8432432,37.6864865 38.2378378,37.6864865 Z"/>
    <linearGradient id="gumroad-n" x1="49.859%" x2="49.859%" y1="98.597%" y2="2.856%">
      <stop offset="0%" stop-color="#0A968E"/>
      <stop offset="100%" stop-color="#3EB8BC"/>
    </linearGradient>
    <path id="gumroad-p" d="M7.13513514,7.91351351 L47.2216216,7.91351351 C48.0972973,9.6 49.8810811,10.7675676 51.9243243,10.7675676 C54.8432432,10.7675676 57.2108108,8.4 57.2108108,5.48108108 C57.2108108,2.56216216 54.8432432,0.194594595 51.8918919,0.194594595 C49.6864865,0.194594595 47.772973,1.55675676 46.9945946,3.5027027 L7.13513514,3.5027027 C3.27567568,3.5027027 0.227027027,6.45405405 0.227027027,10.1837838 L0.227027027,52.8648649 C0.227027027,56.6594595 3.40540541,59.9027027 7.13513514,59.9027027 L49.7837838,59.9027027 C53.5459459,59.9027027 56.5945946,56.7567568 56.5945946,52.8648649 L56.5945946,27.5675676 C56.5945946,23.772973 53.5459459,20.6594595 49.7837838,20.6594595 L24.4864865,20.6594595 C20.627027,20.6594595 17.3513514,23.8378378 17.3513514,27.5675676 L17.3513514,35.5135135 C17.3513514,39.2108108 20.5621622,42.1945946 24.4864865,42.1945946 L33.3081081,42.1945946 C34.0864865,44.1405405 36,45.5027027 38.2054054,45.5027027 C41.1243243,45.5027027 43.4918919,43.1351351 43.4918919,40.2162162 C43.4918919,37.2972973 41.1243243,34.9297297 38.2054054,34.9297297 C36.1621622,34.9297297 34.3783784,36.0972973 33.5027027,37.7837838 L24.4864865,37.7837838 C23.1891892,37.7837838 21.7945946,36.9081081 21.7945946,35.5135135 L21.7945946,27.5351351 C21.7945946,26.2378378 23.0918919,25.0378378 24.4864865,25.0378378 L49.7837838,25.0378378 C51.1135135,25.0378378 52.1837838,26.1405405 52.1837838,27.5351351 L52.1837838,52.8324324 C52.1837838,54.227027 51.0810811,55.427027 49.7837838,55.427027 L7.13513514,55.427027 C5.80540541,55.427027 4.63783784,54.1945946 4.63783784,52.8324324 L4.63783784,10.1837838 C4.63783784,8.91891892 5.70810811,7.91351351 7.13513514,7.91351351 Z M51.8918919,2.95135135 C53.2864865,2.95135135 54.4216216,4.08648649 54.4216216,5.48108108 C54.4216216,6.87567568 53.2864865,8.01081081 51.8918919,8.01081081 C50.4972973,8.01081081 49.3621622,6.87567568 49.3621622,5.48108108 C49.3621622,4.08648649 50.4972973,2.95135135 51.8918919,2.95135135 Z M38.2378378,37.6864865 C39.6324324,37.6864865 40.7675676,38.8216216 40.7675676,40.2162162 C40.7675676,41.6108108 39.6324324,42.7459459 38.2378378,42.7459459 C36.8432432,42.7459459 35.7081081,41.6108108 35.7081081,40.2162162 C35.7081081,38.7891892 36.8432432,37.6864865 38.2378378,37.6864865 Z"/>
    <linearGradient id="gumroad-q" x1=".033%" x2="100.025%" y1="49.81%" y2="49.81%">
      <stop offset="0%" stop-color="#0A968E"/>
      <stop offset="100%" stop-color="#EB5B28"/>
    </linearGradient>
    <path id="gumroad-s" d="M7.13513514,7.91351351 L47.2216216,7.91351351 C48.0972973,9.6 49.8810811,10.7675676 51.9243243,10.7675676 C54.8432432,10.7675676 57.2108108,8.4 57.2108108,5.48108108 C57.2108108,2.56216216 54.8432432,0.194594595 51.8918919,0.194594595 C49.6864865,0.194594595 47.772973,1.55675676 46.9945946,3.5027027 L7.13513514,3.5027027 C3.27567568,3.5027027 0.227027027,6.45405405 0.227027027,10.1837838 L0.227027027,52.8648649 C0.227027027,56.6594595 3.40540541,59.9027027 7.13513514,59.9027027 L49.7837838,59.9027027 C53.5459459,59.9027027 56.5945946,56.7567568 56.5945946,52.8648649 L56.5945946,27.5675676 C56.5945946,23.772973 53.5459459,20.6594595 49.7837838,20.6594595 L24.4864865,20.6594595 C20.627027,20.6594595 17.3513514,23.8378378 17.3513514,27.5675676 L17.3513514,35.5135135 C17.3513514,39.2108108 20.5621622,42.1945946 24.4864865,42.1945946 L33.3081081,42.1945946 C34.0864865,44.1405405 36,45.5027027 38.2054054,45.5027027 C41.1243243,45.5027027 43.4918919,43.1351351 43.4918919,40.2162162 C43.4918919,37.2972973 41.1243243,34.9297297 38.2054054,34.9297297 C36.1621622,34.9297297 34.3783784,36.0972973 33.5027027,37.7837838 L24.4864865,37.7837838 C23.1891892,37.7837838 21.7945946,36.9081081 21.7945946,35.5135135 L21.7945946,27.5351351 C21.7945946,26.2378378 23.0918919,25.0378378 24.4864865,25.0378378 L49.7837838,25.0378378 C51.1135135,25.0378378 52.1837838,26.1405405 52.1837838,27.5351351 L52.1837838,52.8324324 C52.1837838,54.227027 51.0810811,55.427027 49.7837838,55.427027 L7.13513514,55.427027 C5.80540541,55.427027 4.63783784,54.1945946 4.63783784,52.8324324 L4.63783784,10.1837838 C4.63783784,8.91891892 5.70810811,7.91351351 7.13513514,7.91351351 Z M51.8918919,2.95135135 C53.2864865,2.95135135 54.4216216,4.08648649 54.4216216,5.48108108 C54.4216216,6.87567568 53.2864865,8.01081081 51.8918919,8.01081081 C50.4972973,8.01081081 49.3621622,6.87567568 49.3621622,5.48108108 C49.3621622,4.08648649 50.4972973,2.95135135 51.8918919,2.95135135 Z M38.2378378,37.6864865 C39.6324324,37.6864865 40.7675676,38.8216216 40.7675676,40.2162162 C40.7675676,41.6108108 39.6324324,42.7459459 38.2378378,42.7459459 C36.8432432,42.7459459 35.7081081,41.6108108 35.7081081,40.2162162 C35.7081081,38.7891892 36.8432432,37.6864865 38.2378378,37.6864865 Z"/>
    <linearGradient id="gumroad-t" x1="50.051%" x2="50.051%" y1=".453%" y2="99.096%">
      <stop offset="0%" stop-color="#C22C2E"/>
      <stop offset="100%" stop-color="#EB5B28"/>
    </linearGradient>
    <path id="gumroad-v" d="M7.13513514,7.91351351 L47.2216216,7.91351351 C48.0972973,9.6 49.8810811,10.7675676 51.9243243,10.7675676 C54.8432432,10.7675676 57.2108108,8.4 57.2108108,5.48108108 C57.2108108,2.56216216 54.8432432,0.194594595 51.8918919,0.194594595 C49.6864865,0.194594595 47.772973,1.55675676 46.9945946,3.5027027 L7.13513514,3.5027027 C3.27567568,3.5027027 0.227027027,6.45405405 0.227027027,10.1837838 L0.227027027,52.8648649 C0.227027027,56.6594595 3.40540541,59.9027027 7.13513514,59.9027027 L49.7837838,59.9027027 C53.5459459,59.9027027 56.5945946,56.7567568 56.5945946,52.8648649 L56.5945946,27.5675676 C56.5945946,23.772973 53.5459459,20.6594595 49.7837838,20.6594595 L24.4864865,20.6594595 C20.627027,20.6594595 17.3513514,23.8378378 17.3513514,27.5675676 L17.3513514,35.5135135 C17.3513514,39.2108108 20.5621622,42.1945946 24.4864865,42.1945946 L33.3081081,42.1945946 C34.0864865,44.1405405 36,45.5027027 38.2054054,45.5027027 C41.1243243,45.5027027 43.4918919,43.1351351 43.4918919,40.2162162 C43.4918919,37.2972973 41.1243243,34.9297297 38.2054054,34.9297297 C36.1621622,34.9297297 34.3783784,36.0972973 33.5027027,37.7837838 L24.4864865,37.7837838 C23.1891892,37.7837838 21.7945946,36.9081081 21.7945946,35.5135135 L21.7945946,27.5351351 C21.7945946,26.2378378 23.0918919,25.0378378 24.4864865,25.0378378 L49.7837838,25.0378378 C51.1135135,25.0378378 52.1837838,26.1405405 52.1837838,27.5351351 L52.1837838,52.8324324 C52.1837838,54.227027 51.0810811,55.427027 49.7837838,55.427027 L7.13513514,55.427027 C5.80540541,55.427027 4.63783784,54.1945946 4.63783784,52.8324324 L4.63783784,10.1837838 C4.63783784,8.91891892 5.70810811,7.91351351 7.13513514,7.91351351 Z M51.8918919,2.95135135 C53.2864865,2.95135135 54.4216216,4.08648649 54.4216216,5.48108108 C54.4216216,6.87567568 53.2864865,8.01081081 51.8918919,8.01081081 C50.4972973,8.01081081 49.3621622,6.87567568 49.3621622,5.48108108 C49.3621622,4.08648649 50.4972973,2.95135135 51.8918919,2.95135135 Z M38.2378378,37.6864865 C39.6324324,37.6864865 40.7675676,38.8216216 40.7675676,40.2162162 C40.7675676,41.6108108 39.6324324,42.7459459 38.2378378,42.7459459 C36.8432432,42.7459459 35.7081081,41.6108108 35.7081081,40.2162162 C35.7081081,38.7891892 36.8432432,37.6864865 38.2378378,37.6864865 Z"/>
    <linearGradient id="gumroad-w" x1="98.567%" x2="1.853%" y1="49.853%" y2="49.853%">
      <stop offset="0%" stop-color="#C22C2E"/>
      <stop offset="100%" stop-color="#CA4C30"/>
    </linearGradient>
    <path id="gumroad-y" d="M7.13513514,7.91351351 L47.2216216,7.91351351 C48.0972973,9.6 49.8810811,10.7675676 51.9243243,10.7675676 C54.8432432,10.7675676 57.2108108,8.4 57.2108108,5.48108108 C57.2108108,2.56216216 54.8432432,0.194594595 51.8918919,0.194594595 C49.6864865,0.194594595 47.772973,1.55675676 46.9945946,3.5027027 L7.13513514,3.5027027 C3.27567568,3.5027027 0.227027027,6.45405405 0.227027027,10.1837838 L0.227027027,52.8648649 C0.227027027,56.6594595 3.40540541,59.9027027 7.13513514,59.9027027 L49.7837838,59.9027027 C53.5459459,59.9027027 56.5945946,56.7567568 56.5945946,52.8648649 L56.5945946,27.5675676 C56.5945946,23.772973 53.5459459,20.6594595 49.7837838,20.6594595 L24.4864865,20.6594595 C20.627027,20.6594595 17.3513514,23.8378378 17.3513514,27.5675676 L17.3513514,35.5135135 C17.3513514,39.2108108 20.5621622,42.1945946 24.4864865,42.1945946 L33.3081081,42.1945946 C34.0864865,44.1405405 36,45.5027027 38.2054054,45.5027027 C41.1243243,45.5027027 43.4918919,43.1351351 43.4918919,40.2162162 C43.4918919,37.2972973 41.1243243,34.9297297 38.2054054,34.9297297 C36.1621622,34.9297297 34.3783784,36.0972973 33.5027027,37.7837838 L24.4864865,37.7837838 C23.1891892,37.7837838 21.7945946,36.9081081 21.7945946,35.5135135 L21.7945946,27.5351351 C21.7945946,26.2378378 23.0918919,25.0378378 24.4864865,25.0378378 L49.7837838,25.0378378 C51.1135135,25.0378378 52.1837838,26.1405405 52.1837838,27.5351351 L52.1837838,52.8324324 C52.1837838,54.227027 51.0810811,55.427027 49.7837838,55.427027 L7.13513514,55.427027 C5.80540541,55.427027 4.63783784,54.1945946 4.63783784,52.8324324 L4.63783784,10.1837838 C4.63783784,8.91891892 5.70810811,7.91351351 7.13513514,7.91351351 Z M51.8918919,2.95135135 C53.2864865,2.95135135 54.4216216,4.08648649 54.4216216,5.48108108 C54.4216216,6.87567568 53.2864865,8.01081081 51.8918919,8.01081081 C50.4972973,8.01081081 49.3621622,6.87567568 49.3621622,5.48108108 C49.3621622,4.08648649 50.4972973,2.95135135 51.8918919,2.95135135 Z M38.2378378,37.6864865 C39.6324324,37.6864865 40.7675676,38.8216216 40.7675676,40.2162162 C40.7675676,41.6108108 39.6324324,42.7459459 38.2378378,42.7459459 C36.8432432,42.7459459 35.7081081,41.6108108 35.7081081,40.2162162 C35.7081081,38.7891892 36.8432432,37.6864865 38.2378378,37.6864865 Z"/>
    <linearGradient id="gumroad-z" x1="50.109%" x2="50.109%" y1="2.453%" y2="96.878%">
      <stop offset="0%" stop-color="#CA4C30"/>
      <stop offset="100%" stop-color="#E94E1B"/>
    </linearGradient>
    <path id="gumroad-B" d="M7.13513514,7.91351351 L47.2216216,7.91351351 C48.0972973,9.6 49.8810811,10.7675676 51.9243243,10.7675676 C54.8432432,10.7675676 57.2108108,8.4 57.2108108,5.48108108 C57.2108108,2.56216216 54.8432432,0.194594595 51.8918919,0.194594595 C49.6864865,0.194594595 47.772973,1.55675676 46.9945946,3.5027027 L7.13513514,3.5027027 C3.27567568,3.5027027 0.227027027,6.45405405 0.227027027,10.1837838 L0.227027027,52.8648649 C0.227027027,56.6594595 3.40540541,59.9027027 7.13513514,59.9027027 L49.7837838,59.9027027 C53.5459459,59.9027027 56.5945946,56.7567568 56.5945946,52.8648649 L56.5945946,27.5675676 C56.5945946,23.772973 53.5459459,20.6594595 49.7837838,20.6594595 L24.4864865,20.6594595 C20.627027,20.6594595 17.3513514,23.8378378 17.3513514,27.5675676 L17.3513514,35.5135135 C17.3513514,39.2108108 20.5621622,42.1945946 24.4864865,42.1945946 L33.3081081,42.1945946 C34.0864865,44.1405405 36,45.5027027 38.2054054,45.5027027 C41.1243243,45.5027027 43.4918919,43.1351351 43.4918919,40.2162162 C43.4918919,37.2972973 41.1243243,34.9297297 38.2054054,34.9297297 C36.1621622,34.9297297 34.3783784,36.0972973 33.5027027,37.7837838 L24.4864865,37.7837838 C23.1891892,37.7837838 21.7945946,36.9081081 21.7945946,35.5135135 L21.7945946,27.5351351 C21.7945946,26.2378378 23.0918919,25.0378378 24.4864865,25.0378378 L49.7837838,25.0378378 C51.1135135,25.0378378 52.1837838,26.1405405 52.1837838,27.5351351 L52.1837838,52.8324324 C52.1837838,54.227027 51.0810811,55.427027 49.7837838,55.427027 L7.13513514,55.427027 C5.80540541,55.427027 4.63783784,54.1945946 4.63783784,52.8324324 L4.63783784,10.1837838 C4.63783784,8.91891892 5.70810811,7.91351351 7.13513514,7.91351351 Z M51.8918919,2.95135135 C53.2864865,2.95135135 54.4216216,4.08648649 54.4216216,5.48108108 C54.4216216,6.87567568 53.2864865,8.01081081 51.8918919,8.01081081 C50.4972973,8.01081081 49.3621622,6.87567568 49.3621622,5.48108108 C49.3621622,4.08648649 50.4972973,2.95135135 51.8918919,2.95135135 Z M38.2378378,37.6864865 C39.6324324,37.6864865 40.7675676,38.8216216 40.7675676,40.2162162 C40.7675676,41.6108108 39.6324324,42.7459459 38.2378378,42.7459459 C36.8432432,42.7459459 35.7081081,41.6108108 35.7081081,40.2162162 C35.7081081,38.7891892 36.8432432,37.6864865 38.2378378,37.6864865 Z"/>
    <linearGradient id="gumroad-C" x1="99.996%" x2="1.705%" y1="50.047%" y2="50.047%">
      <stop offset="0%" stop-color="#0D77BA"/>
      <stop offset="100%" stop-color="#3EB8BC"/>
    </linearGradient>
    <path id="gumroad-E" d="M7.13513514,7.91351351 L47.2216216,7.91351351 C48.0972973,9.6 49.8810811,10.7675676 51.9243243,10.7675676 C54.8432432,10.7675676 57.2108108,8.4 57.2108108,5.48108108 C57.2108108,2.56216216 54.8432432,0.194594595 51.8918919,0.194594595 C49.6864865,0.194594595 47.772973,1.55675676 46.9945946,3.5027027 L7.13513514,3.5027027 C3.27567568,3.5027027 0.227027027,6.45405405 0.227027027,10.1837838 L0.227027027,52.8648649 C0.227027027,56.6594595 3.40540541,59.9027027 7.13513514,59.9027027 L49.7837838,59.9027027 C53.5459459,59.9027027 56.5945946,56.7567568 56.5945946,52.8648649 L56.5945946,27.5675676 C56.5945946,23.772973 53.5459459,20.6594595 49.7837838,20.6594595 L24.4864865,20.6594595 C20.627027,20.6594595 17.3513514,23.8378378 17.3513514,27.5675676 L17.3513514,35.5135135 C17.3513514,39.2108108 20.5621622,42.1945946 24.4864865,42.1945946 L33.3081081,42.1945946 C34.0864865,44.1405405 36,45.5027027 38.2054054,45.5027027 C41.1243243,45.5027027 43.4918919,43.1351351 43.4918919,40.2162162 C43.4918919,37.2972973 41.1243243,34.9297297 38.2054054,34.9297297 C36.1621622,34.9297297 34.3783784,36.0972973 33.5027027,37.7837838 L24.4864865,37.7837838 C23.1891892,37.7837838 21.7945946,36.9081081 21.7945946,35.5135135 L21.7945946,27.5351351 C21.7945946,26.2378378 23.0918919,25.0378378 24.4864865,25.0378378 L49.7837838,25.0378378 C51.1135135,25.0378378 52.1837838,26.1405405 52.1837838,27.5351351 L52.1837838,52.8324324 C52.1837838,54.227027 51.0810811,55.427027 49.7837838,55.427027 L7.13513514,55.427027 C5.80540541,55.427027 4.63783784,54.1945946 4.63783784,52.8324324 L4.63783784,10.1837838 C4.63783784,8.91891892 5.70810811,7.91351351 7.13513514,7.91351351 Z M51.8918919,2.95135135 C53.2864865,2.95135135 54.4216216,4.08648649 54.4216216,5.48108108 C54.4216216,6.87567568 53.2864865,8.01081081 51.8918919,8.01081081 C50.4972973,8.01081081 49.3621622,6.87567568 49.3621622,5.48108108 C49.3621622,4.08648649 50.4972973,2.95135135 51.8918919,2.95135135 Z M38.2378378,37.6864865 C39.6324324,37.6864865 40.7675676,38.8216216 40.7675676,40.2162162 C40.7675676,41.6108108 39.6324324,42.7459459 38.2378378,42.7459459 C36.8432432,42.7459459 35.7081081,41.6108108 35.7081081,40.2162162 C35.7081081,38.7891892 36.8432432,37.6864865 38.2378378,37.6864865 Z"/>
    <linearGradient id="gumroad-F" x1=".015%" x2="100.075%" y1="50.01%" y2="50.01%">
      <stop offset="0%" stop-color="#E94E1B"/>
      <stop offset="100%" stop-color="#F8AE3B"/>
    </linearGradient>
  </defs>
  <g fill="none" fill-rule="evenodd" transform="translate(1)">
    <mask id="gumroad-b" fill="#fff">
      <use xlink:href="#gumroad-a"/>
    </mask>
    <rect width="8.465" height="9.016" x="-1.492" y="1.427" fill="#3EB8BC" fill-rule="nonzero" mask="url(#gumroad-b)"/>
    <mask id="gumroad-d" fill="#fff">
      <use xlink:href="#gumroad-c"/>
    </mask>
    <rect width="8.465" height="9.016" x="-1.492" y="52.67" fill="#0A968E" fill-rule="nonzero" mask="url(#gumroad-d)"/>
    <mask id="gumroad-f" fill="#fff">
      <use xlink:href="#gumroad-e"/>
    </mask>
    <rect width="8.465" height="9.016" x="49.622" y="52.67" fill="#EB5B28" fill-rule="nonzero" mask="url(#gumroad-f)"/>
    <mask id="gumroad-h" fill="#fff">
      <use xlink:href="#gumroad-g"/>
    </mask>
    <rect width="8.465" height="9.016" x="49.622" y="18.714" fill="#C22C2E" fill-rule="nonzero" mask="url(#gumroad-h)"/>
    <mask id="gumroad-j" fill="#fff">
      <use xlink:href="#gumroad-i"/>
    </mask>
    <rect width="8.465" height="9.016" x="16.184" y="18.714" fill="#CA4C30" fill-rule="nonzero" mask="url(#gumroad-j)"/>
    <mask id="gumroad-l" fill="#fff">
      <use xlink:href="#gumroad-k"/>
    </mask>
    <rect width="8.465" height="9.016" x="16.184" y="35.319" fill="#E94E1B" fill-rule="nonzero" mask="url(#gumroad-l)"/>
    <mask id="gumroad-o" fill="#fff">
      <use xlink:href="#gumroad-m"/>
    </mask>
    <rect width="8.303" height="42.584" x="-1.492" y="10.281" fill="url(#gumroad-n)" fill-rule="nonzero" mask="url(#gumroad-o)"/>
    <mask id="gumroad-r" fill="#fff">
      <use xlink:href="#gumroad-p"/>
    </mask>
    <rect width="43.005" height="8.854" x="6.778" y="52.865" fill="url(#gumroad-q)" fill-rule="nonzero" mask="url(#gumroad-r)"/>
    <mask id="gumroad-u" fill="#fff">
      <use xlink:href="#gumroad-s"/>
    </mask>
    <rect width="8.303" height="25.297" x="49.784" y="27.535" fill="url(#gumroad-t)" fill-rule="nonzero" mask="url(#gumroad-u)"/>
    <mask id="gumroad-x" fill="#fff">
      <use xlink:href="#gumroad-v"/>
    </mask>
    <rect width="25.297" height="8.854" x="24.486" y="18.714" fill="url(#gumroad-w)" fill-rule="nonzero" mask="url(#gumroad-x)"/>
    <mask id="gumroad-A" fill="#fff">
      <use xlink:href="#gumroad-y"/>
    </mask>
    <rect width="8.303" height="7.946" x="16.184" y="27.535" fill="url(#gumroad-z)" fill-rule="nonzero" mask="url(#gumroad-A)"/>
    <mask id="gumroad-D" fill="#fff">
      <use xlink:href="#gumroad-B"/>
    </mask>
    <polygon fill="url(#gumroad-C)" fill-rule="nonzero" points="45.6 -.422 45.6 1.427 6.778 1.427 6.778 10.281 45.6 10.281 45.6 12.097 58.086 12.097 58.086 -.422" mask="url(#gumroad-D)"/>
    <mask id="gumroad-G" fill="#fff">
      <use xlink:href="#gumroad-E"/>
    </mask>
    <polygon fill="url(#gumroad-F)" fill-rule="nonzero" points="32.076 33.989 32.076 35.514 24.486 35.514 24.486 44.335 32.076 44.335 32.076 46.411 44.497 46.411 44.497 33.989" mask="url(#gumroad-G)"/>
  </g>
</svg>
