<svg xmlns="http://www.w3.org/2000/svg" viewBox="0 0 60 60">
  <defs>
    <radialGradient id="netlify-a" cx="50%" cy="-50%" r="100.11%" fx="50%" fy="-50%" gradientTransform="matrix(0 .9989 -1 0 0 -1)">
      <stop offset="0%" stop-color="#20C6B7"/>
      <stop offset="100%" stop-color="#4D9ABF"/>
    </radialGradient>
  </defs>
  <path fill="url(#netlify-a)" d="M42.8835,21.2025 L42.8625,21.1935 C42.8505,21.189 42.8385,21.1845 42.828,21.174 C42.7931181,21.1365329 42.7776021,21.0849976 42.786,21.0345 L43.9455,13.9455 L49.383,19.3845 L43.728,21.7905 C43.7122844,21.7968374 43.6954405,21.7998999 43.6785,21.7995347 L43.656,21.7995347 C43.6485,21.795 43.641,21.789 43.626,21.774 C43.4155488,21.5396782 43.16388,21.3459695 42.8835,21.2025 Z M50.7705,20.7705 L56.5845,26.5845 C57.792,27.7935 58.3965,28.3965 58.617,29.0955 C58.65,29.199 58.677,29.3025 58.698,29.409 L44.8035,23.5245 C44.7960335,23.5214169 44.7885331,23.5184167 44.781,23.5155 C44.7255,23.493 44.661,23.4675 44.661,23.4105 C44.661,23.3535 44.727,23.3265 44.7825,23.304 L44.8005,23.2965 L50.7705,20.7705 L50.7705,20.7705 Z M58.461,31.275 C58.161,31.839 57.576,32.424 56.586,33.4155 L50.031,39.969 L41.553,38.2035 L41.508,38.1945 C41.433,38.1825 41.3535,38.169 41.3535,38.1015 C41.2884133,37.3945363 40.9325548,36.7463849 40.371,36.312 C40.3365,36.2775 40.3455,36.2235 40.356,36.174 C40.356,36.1665 40.356,36.159 40.359,36.153 L41.9535,26.364 L41.9595,26.331 C41.9685,26.256 41.982,26.169 42.0495,26.169 C42.7397457,26.083133 43.3666251,25.7237581 43.7895,25.1715 C43.803,25.1565 43.812,25.14 43.83,25.131 C43.878,25.1085 43.935,25.131 43.9845,25.152 L58.4595,31.275 L58.461,31.275 Z M48.5235,41.4765 L37.7445,52.2555 L39.5895,40.9155 L39.5925,40.9005 C39.594,40.8855 39.597,40.8705 39.6015,40.857 C39.6165,40.821 39.6555,40.806 39.693,40.791 L39.711,40.7835 C40.1149736,40.611142 40.4722667,40.3453571 40.7535,40.008 C40.7895,39.966 40.833,39.9255 40.8885,39.918 C40.9029047,39.9156485 40.9175953,39.9156485 40.932,39.918 L48.522,41.478 L48.5235,41.4765 Z M35.463,54.537 L34.248,55.752 L20.8155,36.339 C20.8106425,36.3318993 20.8056415,36.3248978 20.8005,36.318 C20.7795,36.2895 20.757,36.261 20.7615,36.228 C20.763,36.204 20.778,36.183 20.7945,36.165 L20.8095,36.1455 C20.85,36.0855 20.8845,36.0255 20.922,35.961 L20.952,35.9085 L20.9565,35.904 C20.9775,35.868 20.997,35.8335 21.033,35.814 C21.0645,35.799 21.108,35.805 21.1425,35.8125 L36.024,38.8815 C36.0656104,38.8879707 36.1048631,38.9050147 36.138,38.931 C36.1575,38.9505 36.162,38.9715 36.1665,38.9955 C36.376921,39.7916404 36.9473749,40.443667 37.7085,40.758 C37.7505,40.779 37.7325,40.8255 37.713,40.875 C37.703271,40.8966946 37.6957335,40.9193069 37.6905,40.9425 C37.503,42.0825 35.895,51.8895 35.463,54.537 Z M32.925,57.0735 C32.0295,57.96 31.5015,58.4295 30.9045,58.6185 C30.3158642,58.8046353 29.6841358,58.8046353 29.0955,58.6185 C28.3965,58.3965 27.792,57.7935 26.5845,56.5845 L13.095,43.095 L16.6185,37.6305 C16.635,37.6035 16.6515,37.5795 16.6785,37.56 C16.716,37.533 16.77,37.545 16.815,37.56 C17.6237407,37.803992 18.4920653,37.7599927 19.272,37.4355 C19.3125,37.4205689 19.353,37.41 19.3845,37.4385 C19.4002519,37.4528781 19.4143401,37.4689789 19.4265,37.4865 L32.925,57.075 L32.925,57.0735 Z M11.7945,41.7945 L8.7,38.7 L14.811,36.093 C14.8266202,36.0861887 14.8434597,36.0826167 14.8605,36.0825 C14.9115,36.0825 14.9415,36.1335 14.9685,36.18 C15.029913,36.2744826 15.0949617,36.3665516 15.1635,36.456 L15.183,36.48 C15.201,36.5055 15.189,36.531 15.171,36.555 L11.796,41.7945 L11.7945,41.7945 Z M7.3305,37.3305 L3.4155,33.4155 C2.7495,32.7495 2.2665,32.2665 1.9305,31.851 L13.8345,34.32 C13.8494535,34.3227714 13.864456,34.3252718 13.8795,34.3275 C13.953,34.3395 14.034,34.353 14.034,34.422 C14.034,34.497 13.9455,34.5315 13.8705,34.56 L13.836,34.575 L7.3305,37.3305 Z M1.2465,29.838 C1.26006623,29.5858041 1.30542504,29.3363307 1.3815,29.0955 C1.6035,28.3965 2.2065,27.7935 3.4155,26.5845 L8.4255,21.5745 C10.7322497,24.9223196 13.0452537,28.2658254 15.3645,31.605 C15.405,31.659 15.45,31.719 15.4035,31.764 C15.1845,32.0055 14.9655,32.2695 14.811,32.556 C14.7942391,32.5928265 14.7684397,32.6248177 14.736,32.649 C14.7165,32.661 14.6955,32.6565 14.673,32.652 L14.67,32.652 L1.2465,29.8365 L1.2465,29.838 Z M9.7665,20.2335 L16.503,13.497 C17.136,13.7745 19.44,14.748 21.501,15.618 C23.061,16.278 24.483,16.878 24.93,17.073 C24.975,17.091 25.0155,17.109 25.035,17.154 C25.047,17.181 25.041,17.2155 25.035,17.244 C24.8183862,18.2317803 25.1132134,19.2622662 25.8195,19.986 C25.8645,20.031 25.8195,20.0955 25.7805,20.151 L25.7595,20.1825 L18.9195,30.777 C18.9015,30.807 18.885,30.8325 18.855,30.852 C18.819,30.8745 18.768,30.864 18.726,30.8535 C18.4599674,30.7838008 18.186482,30.7465302 17.9115,30.7425 C17.6655,30.7425 17.3985,30.7875 17.1285,30.837 L17.127,30.837 C17.097,30.8415 17.07,30.8475 17.046,30.8295 C17.0194926,30.8078373 16.9966936,30.7819984 16.9785,30.753 L9.7665,20.2335 L9.7665,20.2335 Z M17.8635,12.1365 L26.5845,3.4155 C27.792,2.208 28.3965,1.6035 29.0955,1.383 C29.6841358,1.19686471 30.3158642,1.19686471 30.9045,1.383 C31.6035,1.6035 32.208,2.208 33.4155,3.4155 L35.3055,5.3055 L29.103,14.9115 C29.087656,14.9394646 29.0667219,14.9639728 29.0415,14.9835 C29.004,15.009 28.9515,14.9985 28.9065,14.9835 C27.9137179,14.6822192 26.8362247,14.8898611 26.0265,15.5385 C25.986,15.5805 25.926,15.5565 25.875,15.534 C25.065,15.1815 18.765,12.519 17.8635,12.1365 L17.8635,12.1365 Z M36.6225,6.6225 L42.3495,12.3495 L40.9695,20.8965 L40.9695,20.919 C40.9682679,20.938479 40.9642261,20.9576776 40.9575,20.976 C40.9425,21.006 40.9125,21.012 40.8825,21.021 C40.5874487,21.1103723 40.3095606,21.2488092 40.0605,21.4305 C40.0497925,21.4381307 40.0397561,21.4466617 40.0305,21.456 C40.014,21.474 39.9975,21.4905 39.9705,21.4935816 C39.9485249,21.4941789 39.9266251,21.4906139 39.906,21.483 L31.179,17.775 L31.1625,17.7675 C31.107,17.745 31.041,17.718 31.041,17.661 C30.9897048,17.1746764 30.8308686,16.7058534 30.576,16.2885 C30.534,16.2195 30.4875,16.1475 30.5235,16.077 L36.6225,6.6225 L36.6225,6.6225 Z M30.7245,19.5315 L38.9055,22.9965 C38.9505,23.0175 39,23.037 39.0195,23.0835 C39.0273065,23.1114654 39.0273065,23.1410346 39.0195,23.169 C38.9955,23.289 38.9745,23.4255 38.9745,23.5635 L38.9745,23.793 C38.9745,23.85 38.916,23.874 38.862,23.8965 L38.8455,23.9025 C37.5495,24.456 20.6505,31.662 20.625,31.662 C20.5995,31.662 20.5725,31.662 20.547,31.6365 C20.502,31.5915 20.547,31.5285 20.5875,31.4715 C20.5946602,31.4616131 20.6016611,31.4516118 20.6085,31.4415 L27.3315,21.0315 L27.3435,21.0135 C27.3825,20.9505 27.4275,20.88 27.4995,20.88 L27.567,20.8905 C27.72,20.9115 27.855,20.931 27.9915,20.931 C29.0115,20.931 29.9565,20.4345 30.5265,19.5855 C30.5400806,19.5628285 30.5573125,19.5425556 30.5775,19.5255 C30.618,19.4955 30.678,19.5105 30.7245,19.5315 L30.7245,19.5315 Z M21.3555,33.309 L39.7755,25.4535 C39.7755,25.4535 39.8025,25.4535 39.828,25.479 C39.9285,25.5795 40.014,25.647 40.0965,25.71 L40.137,25.7355 C40.1745,25.7565 40.212,25.7805 40.215,25.8195 C40.215,25.8345 40.215,25.8435 40.212,25.857 L38.634,35.55 L38.628,35.589 C38.6175,35.664 38.607,35.7495 38.5365,35.7495 C37.682391,35.8071501 36.9117473,36.2825581 36.477,37.02 L36.4695,37.032 C36.4485,37.0665 36.429,37.0995 36.3945,37.1175 C36.363,37.1325 36.3225,37.1265 36.2895,37.119 L21.6,34.089 C21.585,34.086 21.372,33.3105 21.3555,33.309 Z"/>
</svg>
