<svg xmlns="http://www.w3.org/2000/svg" viewBox="0 0 60 60" fill="currentColor">
  <path d="M28.035,0.0164026331 C27.90625,0.0289026331 27.49625,0.0689026331 27.12625,0.0989026331 C18.60375,0.866402633 10.62125,5.46265263 5.56625,12.5301526 C2.77129631,16.4091978 0.954385378,20.9058058 0.27,25.6376526 C0.02875,27.2851526 0,27.7714026 0,30.0064026 C0,32.2401526 0.02875,32.7276526 0.27,34.3751526 C1.9,45.6401526 9.9175,55.1051526 20.79125,58.6126526 C22.73875,59.2389026 24.79125,59.6676526 27.12625,59.9251526 C28.035,60.0251526 31.96375,60.0251526 32.87375,59.9251526 C36.90375,59.4801526 40.31625,58.4826526 43.68375,56.7639026 C44.19875,56.5014026 44.29875,56.4301526 44.22875,56.3714026 C44.18125,56.3364026 41.9825,53.3864026 39.3425,49.8214026 L34.545,43.3414026 L28.53375,34.4451526 C25.22625,29.5539026 22.50375,25.5551526 22.48125,25.5551526 C22.4575,25.5489026 22.43375,29.5014026 22.4225,34.3276526 C22.405,42.7776526 22.39875,43.1189026 22.29375,43.3176526 C22.14125,43.6051526 22.02375,43.7226526 21.7775,43.8514026 C21.59,43.9451526 21.425,43.9639026 20.54,43.9639026 L19.525,43.9639026 L19.255,43.7926526 C19.0881774,43.687953 18.9526038,43.54029 18.8625,43.3651526 L18.73875,43.1014026 L18.75125,31.3426526 L18.76875,19.5801526 L18.95,19.3501526 C19.04375,19.2276526 19.24375,19.0689026 19.38375,18.9926526 C19.625,18.8751526 19.71875,18.8639026 20.73375,18.8639026 C21.93,18.8639026 22.12875,18.9114026 22.44,19.2514026 C22.5275,19.3451526 25.7825,24.2476526 29.6775,30.1526526 C33.5725,36.0576526 38.8975,44.1214026 41.51375,48.0801526 L46.26375,55.2751526 L46.50375,55.1164026 C48.63375,53.7326526 50.885,51.7626526 52.66875,49.7101526 C56.449084,45.3843101 58.9012841,40.0597806 59.73125,34.3751526 C59.97125,32.7264026 60,32.2401526 60,30.0064026 C60,27.7714026 59.97125,27.2851526 59.73,25.6376526 C58.1,14.3714026 50.0825,4.90765263 39.20875,1.40015263 C37.29,0.778902633 35.24875,0.350152633 32.96125,0.0926526331 C32.39875,0.0339026331 28.5225,-0.0310973669 28.03625,0.0164026331 L28.035,0.0164026331 Z M40.31625,18.1601526 C40.5982564,18.3026596 40.8115866,18.5519948 40.90875,18.8526526 C40.95625,19.0051526 40.9675,22.2651526 40.95625,29.6126526 L40.93875,40.1576526 L39.07875,37.3076526 L37.21375,34.4576526 L37.21375,26.7926526 C37.21375,21.8376526 37.2375,19.0514026 37.2725,18.9176526 C37.3570258,18.6019404 37.5670462,18.3345596 37.85375,18.1776526 C38.09375,18.0551526 38.18125,18.0426526 39.10375,18.0426526 C39.97125,18.0426526 40.12375,18.0551526 40.31625,18.1601526 L40.31625,18.1601526 Z"/>
</svg>
