<svg xmlns="http://www.w3.org/2000/svg" viewBox="0 0 60 60">
  <path fill="#61DAFB" d="M31.5208696,8.3574667 C36.6913043,3.8574667 41.8095652,1.97398844 44.94,3.77920583 C48.206087,5.66268409 49.1608696,11.380945 47.7,18.4765971 C47.6078261,18.9183363 47.5078261,19.3583363 47.4,19.7965971 C48.0486957,19.9844232 48.6921739,20.1879015 49.3304348,20.4070319 C55.8130435,22.6374667 60,26.1305102 60,29.7461624 C60,33.5131189 55.526087,37.1992058 48.6469565,39.4792058 C48.2817391,39.5992058 47.9095652,39.714858 47.5304348,39.8261624 C47.666087,40.3722493 47.786087,40.9061624 47.8904348,41.4279015 C49.2495652,48.2861624 48.2034783,53.9235537 44.9817391,55.788771 C41.8669565,57.588771 36.8321739,55.8200754 31.7295652,51.4322493 C31.1765217,50.9539884 30.6373913,50.4600754 30.1121739,49.9505102 C29.6947826,50.3574667 29.2773913,50.7418145 28.86,51.1035537 C23.5930435,55.7052928 18.1878261,57.614858 14.9686957,55.7574667 C11.8486957,53.9574667 10.8678261,48.708771 12.1252174,42.100945 C12.2608696,41.3826841 12.4173913,40.6696406 12.5947826,39.9618145 C12.0486957,39.8052928 11.5078261,39.634858 10.9721739,39.4505102 C4.35652174,37.1939884 0,33.4635537 0,29.7461624 C0,26.1461624 4.05652174,22.6765971 10.4086957,20.4592058 C11.1182609,20.2113797 11.8617391,19.9792058 12.626087,19.7600754 C12.4643478,19.100945 12.3165217,18.4383363 12.1826087,17.7722493 C10.8730435,11.0470319 11.7991304,5.67051018 14.9217391,3.8600754 C18.1826087,1.97659714 23.6165217,4.00094496 29.0373913,8.80877105 C29.3730435,9.10790148 29.7034783,9.41398844 30.0286957,9.72703192 C30.513913,9.2574667 31.0113043,8.80094496 31.5208696,8.3574667 Z M45.0521739,40.480945 C42.3753946,41.0841713 39.6602902,41.5025501 36.926087,41.7331189 C35.3952789,43.972641 33.7149318,46.1061938 31.8965217,48.1192058 C32.4026087,48.6061624 32.9052174,49.0635537 33.4043478,49.4913797 C37.766087,53.2426841 41.8095652,54.6670319 43.7008696,53.5713797 C44.715633,52.7564556 45.3902359,51.6004055 45.6060321,50.3282315 L45.6652174,49.8461624 C46.0535179,47.2143867 45.9562455,44.5305532 45.3756522,41.9313797 C45.2817391,41.4583363 45.173913,40.974858 45.0521739,40.480945 Z M15.0808696,40.5931189 C14.9173913,41.2522493 14.7713043,41.9165971 14.6426087,42.5861624 C13.5704348,48.2365971 14.3582609,52.4470319 16.2495652,53.5426841 C17.4619229,54.0131522 18.7992725,54.0191709 20.0080241,53.5704937 L20.4547826,53.380945 C22.6228453,52.5268263 24.6372096,51.3300405 26.4216922,49.8382207 L27.1721739,49.180945 C27.5643478,48.8374667 27.9452174,48.4870319 28.3173913,48.1270319 C26.4633181,46.1203627 24.7430914,43.9940439 23.1678261,41.7618145 C20.4488405,41.5556327 17.7469811,41.1651704 15.0808696,40.5931189 Z M33.6208696,41.9496406 C32.4295652,42.0018145 31.2226087,42.0279015 30,42.0279015 C28.8069565,42.0279015 27.6365217,42.0052928 26.4886957,41.9600754 C27.6730435,43.5200754 28.8834783,44.9705102 30.0991304,46.2800754 C31.3462312,44.8976912 32.5216851,43.4523183 33.6208696,41.9496406 Z M30,20.1305102 C28.1504348,20.1305102 26.3217391,20.2035537 24.5373913,20.3392058 C23.5078261,21.8435537 22.5391304,23.3870319 21.6313043,24.9696406 C21.0214493,26.0235537 20.4394203,27.0913797 19.8852174,28.1731189 L19.0747826,29.8061624 L19.8881159,31.4354377 C20.4438647,32.5167904 21.0266667,33.5850029 21.6365217,34.6400754 C22.5547826,36.2279015 23.5321739,37.7783363 24.5686957,39.2913797 C26.3165217,39.4061624 28.1321739,39.4635537 30,39.4635537 C31.8756522,39.4635537 33.7147826,39.400945 35.493913,39.2705102 C36.5043478,37.7539884 37.4643478,36.2061624 38.373913,34.6270319 C39.2921739,33.0374667 40.1513043,31.4183363 40.9513043,29.7696406 C40.1408696,28.1365971 39.2782609,26.5322493 38.3634783,24.9565971 C37.453913,23.3826841 36.4904348,21.8435537 35.4730435,20.3392058 C33.6886957,20.2035537 31.8573913,20.1305102 30,20.1305102 Z M17.7130435,32.8165971 C16.953913,34.6244232 16.3017391,36.4061624 15.7695652,38.1200754 C17.596648,38.5101872 19.4425563,38.8062291 21.3,39.0070319 C20.6478261,37.9931189 20.02,36.9644232 19.4165217,35.920945 L18.5471739,34.3805102 L18.5471739,34.3805102 L17.7130435,32.8165971 Z M42.333913,32.7279015 L41.4821739,34.3283363 L41.4821739,34.3283363 L40.5965217,35.9105102 C39.9991304,36.9374667 39.3852174,37.954858 38.7521739,38.9600754 C40.6326909,38.7402811 42.5004503,38.4224573 44.3478261,38.0079015 C43.7683901,36.2142205 43.0961802,34.4518464 42.333913,32.7279015 Z M13.3173913,22.2305102 C12.6234783,22.4252928 11.9347826,22.6426841 11.2513043,22.8826841 C5.82,24.7739884 2.56434783,27.5600754 2.56434783,29.7435537 C2.75978523,31.0301864 3.42094477,32.1938688 4.41281169,33.0190813 L4.8,33.3122493 C6.88583966,34.9714368 9.25930818,36.2324525 11.8017391,37.0322493 L12.5373913,37.2715971 L12.5373913,37.2715971 L13.2782609,37.4939884 C14.0966746,34.8673023 15.0849126,32.299975 16.2391304,29.8061624 C15.0993325,27.3480924 14.123291,24.8173563 13.3173913,22.2305102 Z M46.713913,22.2722493 C45.9080572,24.8302668 44.9319645,27.3315043 43.7921739,29.7592058 C44.9756646,32.2203878 45.9901853,34.7593043 46.8286957,37.3583363 L47.3396739,37.2057276 L47.3396739,37.2057276 L47.8408696,37.0452928 C53.7782609,35.0783363 57.4382609,32.0679015 57.4382609,29.7461624 C57.4382609,27.5705102 54.0521739,24.7426841 48.4956522,22.8331189 C47.9217391,22.6374667 47.3243478,22.4470319 46.713913,22.2722493 Z M30,24.3879015 C32.1676888,24.3879015 34.1218344,25.6939661 34.9508847,27.6968516 C35.7799351,29.699737 35.320548,32.0048294 33.7870141,33.53687 C32.2534802,35.0689107 29.9479415,35.526052 27.9458646,34.6950509 C25.9437877,33.8640498 24.6396284,31.9086327 24.641734,29.740945 C24.6458605,26.91909 26.8307391,24.6093236 29.6005117,24.4051778 L30,24.3879015 Z M38.76,20.6731189 C39.3895652,21.660945 39.9982609,22.660945 40.586087,23.6731189 L41.4626087,25.2252928 L41.4626087,25.2252928 L42.3078261,26.7921739 L42.8372048,25.5229109 C43.1793722,24.6700528 43.4999853,23.8087043 43.7987383,22.9396864 L44.2304348,21.6305102 C42.506087,21.2365971 40.6721739,20.9157276 38.76,20.6731189 Z M21.2452174,20.6652928 C19.3434783,20.9026841 17.5173913,21.2157276 15.8086957,21.5992058 C16.2,22.8611624 16.6558696,24.1554015 17.1741033,25.4698172 L17.7130435,26.7869565 L18.2582609,25.7481913 L18.8234783,24.7151479 L18.8234783,24.7151479 L19.406087,23.6913797 C19.9956522,22.6652928 20.6086957,21.6565971 21.2452174,20.6652928 Z M43.6695652,6.00442322 C41.853913,4.96261453 37.965863,6.3201714 33.7387282,9.84167712 L33.2086957,10.2931189 C32.733913,10.7035537 32.2747826,11.1244232 31.826087,11.5557276 C33.6578275,13.5496741 35.3529798,15.6649103 36.9,17.8870319 C39.5998369,18.1320419 42.2804848,18.5555773 44.9243478,19.154858 C45.0217391,18.7600754 45.1113043,18.3626841 45.1930435,17.9626841 C46.4556522,11.834858 45.6782609,7.16268409 43.6695652,6.00442322 Z M27.333913,10.728771 C22.833913,6.73295165 18.5606303,5.04771882 16.4528499,5.95600532 L16.2104348,6.0774667 C14.3243478,7.17311887 13.5756522,11.5192058 14.7052174,17.2844232 C14.8269565,17.9018145 14.9643478,18.5192058 15.1173913,19.1313797 C17.7555736,18.5443412 20.4289889,18.1286896 23.1208696,17.8870319 C24.6834717,15.6667802 26.3915658,13.5525779 28.233913,11.5583363 C27.933913,11.2713797 27.633913,10.994858 27.333913,10.728771 Z M30.026087,13.3965217 L29.1300408,14.39032 C28.2330978,15.4104015 27.3423913,16.5031189 26.4678261,17.6574667 C28.8330435,17.5444232 31.1965217,17.5444232 33.5582609,17.6574667 C32.7296251,16.5478772 31.8593382,15.4702204 30.9493022,14.426792 L30.026087,13.3965217 Z"/>
</svg>
