<svg xmlns="http://www.w3.org/2000/svg" viewBox="0 0 60 60">
  <path fill="#06B6D4" fill-rule="evenodd" d="M30,0 C22,0 17,4 15,12 C18,8 21.5,6.5 25.5,7.5 C27.7822222,8.07 29.4133333,9.72666667 31.2188889,11.5588889 C34.16,14.5444444 37.5644444,18 45,18 C53,18 58,14 60,6 C57,10 53.5,11.5 49.5,10.5 C47.2177778,9.93 45.5866667,8.27333333 43.7811111,6.44111111 C40.84,3.45555556 37.4355556,0 30,0 Z M15,18 C7,18 2,22 0,30 C3,26 6.5,24.5 10.5,25.5 C12.7822222,26.0711111 14.4133333,27.7266667 16.2188889,29.5588889 C19.16,32.5444444 22.5644444,36 30,36 C38,36 43,32 45,24 C42,28 38.5,29.5 34.5,28.5 C32.2177778,27.93 30.5866667,26.2733333 28.7811111,24.4411111 C25.84,21.4555556 22.4355556,18 15,18 Z" transform="translate(0 12)"/>
</svg>
